<svg width="914" height="974" viewBox="0 0 914 974" fill="none" xmlns="http://www.w3.org/2000/svg">
<path d="M906 487C906 737.185 703.185 940 453 940C202.815 940 0 737.185 0 487C0 236.815 202.815 34 453 34C703.185 34 906 236.815 906 487Z" fill="#559EB0"/>
<g clip-path="url(#clip0)">
<mask id="mask0" style="mask-type:alpha" maskUnits="userSpaceOnUse" x="-16" y="-56" width="1010" height="1010">
<circle cx="489" cy="449" r="505" fill="#C4C4C4"/>
</mask>
<g mask="url(#mask0)">
<path d="M914 487C914 737.185 711.185 940 461 940C210.815 940 8 737.185 8 487C8 236.815 210.815 34 461 34C711.185 34 914 236.815 914 487Z" fill="#559EB0"/>
<path fill-rule="evenodd" clip-rule="evenodd" d="M881.778 553.676C870.083 554.824 858.387 555.97 846.692 557.119C790.68 561.398 734.69 570.336 679.106 575.699C677.722 573.447 675.013 573.818 673.369 575.383C667.822 574.898 661.606 570.658 656.582 575.068C656.419 575.045 656.256 575.018 656.091 575.002C647.146 557.833 640.962 539.52 634.961 521.183C631.13 509.909 625.977 498.995 616.453 491.426C600.2 480.143 562.96 457.265 543.876 458.227C543.559 454.81 541.966 451.288 539.351 449.013C545.115 439.185 522.067 432.773 520.441 433.912C521.483 401.079 506.038 372.565 471.983 366.026C441.473 359.669 398.079 358.601 381.67 390.485C379.866 390.282 361.429 390.186 359.645 390.386C356.871 386.873 326.412 420.16 338.896 431.749C227.284 481.122 163.821 475.231 132.929 614.032C128.752 627.071 128.448 641.339 124.038 654.088C108.348 690.724 95.6225 729.735 92.4554 769.599C84.8061 771.559 83.9264 785.046 92.7866 786.997C96.171 787.743 99.0012 788.762 101.469 790.694C99.5398 823.362 107.441 897.988 112.419 897.758C122.57 930.063 167.847 939.18 199.902 927.828C194.376 938.224 199.902 944.76 199.902 950.315C315.245 954.679 441.359 952.166 556.67 958.15C571.42 957.941 586.934 961.773 601.483 959.567C610.355 957.44 610.37 943.49 601.37 941.765L640.694 933.224C639.815 932.892 656.904 921.526 669.819 900.285C681.841 876.525 673.659 847.844 679.106 821.999C721.651 818.52 764.898 817.032 806.977 809.827C812.714 826.993 837.55 806.463 845.445 798.205C845.435 798.192 845.425 798.18 845.415 798.166C849.236 797.121 852.3 793.541 852.402 789.301C855.081 785.473 855.644 780.077 853.074 776.378C864.851 708.424 882.804 639.042 889.294 570.449C891.588 569.942 893.748 568.936 895.579 567.386L895.431 567.238C898.534 563.778 899.138 557.807 893.964 554.867C889.791 552.494 886.307 553.23 881.778 553.676Z" fill="#FFBE95"/>
<path fill-rule="evenodd" clip-rule="evenodd" d="M436.975 808.009L445.984 813.742L519.697 837.494L564.744 843.227L601.601 837.494V900.56L608.972 959.53C605.696 965.536 574.573 965.536 515.602 959.53C478.01 955.701 340.62 953.844 309.34 953.026L307.567 952.978C270.809 951.918 234.499 951.918 198.636 952.978V930.864L301.015 880.084L392.747 828.485L436.975 808.009ZM384.744 385.331L391.514 390.386L376.733 414.67L448.737 472.913V519.433L471.533 540.994L484.562 519.433L502.923 495.016L515.971 455.437L511.528 429.362L520.462 428.52C520.506 430.303 520.498 432.101 520.441 433.912C522.066 432.773 545.115 439.185 539.351 449.013C541.966 451.288 543.559 454.81 543.876 458.227C562.96 457.265 600.2 480.143 616.453 491.426C625.977 498.995 631.13 509.909 634.961 521.183L635.863 523.933L636.794 526.756L637.732 529.578C642.915 545.086 648.512 560.455 656.091 575.002C656.256 575.018 656.419 575.045 656.582 575.068C661.606 570.658 667.822 574.898 673.369 575.383C674.975 573.854 677.597 573.465 679.007 575.546L679.106 575.699L610.003 589.312L564.415 749.224L524.714 716.998L503.405 720.167L447.13 740.464L381.678 757.465L232.261 798.659H213.234L102.513 771.921L92.5345 768.627C95.8296 729.101 108.476 690.426 124.038 654.088C128.448 641.339 128.752 627.071 132.929 614.032C163.821 475.231 227.284 481.122 338.896 431.749C326.412 420.16 356.871 386.873 359.645 390.386L359.82 390.371L360.198 390.351L360.685 390.334C365.039 390.207 380.051 390.303 381.67 390.485C382.609 388.661 383.636 386.945 384.744 385.331Z" fill="#726F78"/>
<path fill-rule="evenodd" clip-rule="evenodd" d="M892.823 558.531L890.764 570.001C890.275 570.162 889.778 570.297 889.273 570.409C888.626 577.247 887.866 584.092 887.008 590.944L874.247 662.069C872.046 674.652 869.957 687.261 867.882 699.876L865.134 713.425L863.431 721.846C859.757 740.083 856.187 758.261 853.054 776.337C853.527 777.018 853.894 777.756 854.161 778.531L853.92 779.55L853.752 780.23L853.581 780.901C851.109 790.402 846.808 799.616 836.673 802.412C829.028 804.52 820.64 804.711 812.745 805.543L811.87 805.638L673.733 821.173C657.041 823.049 640.358 824.982 623.676 826.936L609.215 828.632C589.058 830.966 568.785 832.803 548.926 837.028C548.196 837.184 547.591 837.475 547.098 837.859C551.098 822.721 554.926 807.602 558.395 792.311C562.3 775.1 566.007 757.856 570.184 740.708C578.598 706.161 588.031 671.841 598.358 637.816C600.525 630.675 602.742 623.548 605.007 616.437L606.597 611.467L607.821 607.506C609.714 601.467 612.058 595.26 617.61 591.929C624.108 588.03 632.969 587.384 640.338 586.035L645.329 585.098C652.795 583.705 660.272 582.365 667.757 581.077C703.595 574.913 739.635 569.969 775.809 566.255C813.45 562.389 851.223 559.877 889.041 558.649L892.823 558.531ZM549.961 795.677L550.313 795.706L545.153 836.954C544.328 836.376 543.281 836.023 542.002 836.026C525.077 836.076 508.853 830.666 493.16 824.719L490.771 823.809L484.108 821.248C477.335 818.653 470.527 816.116 463.591 814.011L460.788 813.165L459.362 812.744C454.111 811.211 448.587 809.818 443.125 809.471L442.381 809.43L443.971 808.595C444.204 808.473 444.408 808.337 444.589 808.189C447.595 808.412 450.608 808.351 453.779 807.78C459.743 806.706 465.543 804.631 470.868 801.743L473.247 800.453L474.22 799.937L474.864 799.603L475.503 799.28C480.077 797 484.45 795.572 490.225 796.787C496.781 798.167 502.526 801.7 508.436 804.685L509.484 805.207L510.19 805.548L510.908 805.886L511.636 806.219C519.627 809.815 532.346 813.696 535.41 802.83C536.641 798.465 535.677 794.377 533.541 790.793C537.521 790.448 544.632 795.141 549.961 795.677ZM748.886 659.776L748.982 660.271C750.112 666.355 747.278 672.174 742.99 676.416C739.472 679.896 733.247 681.829 731.483 686.834C730.479 689.682 731.547 692.383 733.61 694.266L733.135 694.5L732.67 694.738L732.217 694.977L731.775 695.219L731.344 695.462C724.338 699.487 718.633 706.033 724.952 713.939C732.12 722.908 747.097 723.198 757.65 722.497L758.361 722.447C768.593 721.68 780.714 718.243 786.263 708.794C788.808 704.46 788.528 699.218 784.98 695.509C782.84 693.271 779.023 690.973 775.522 690.701C775.675 688.729 775.44 686.824 774.746 685.216C773.246 681.741 769.253 679.401 765.402 679.317C765.714 671.937 759.803 664.653 755.452 658.754L755.007 658.149L754.576 657.554C752.579 654.776 748.307 656.332 748.886 659.776ZM754.725 667.631L758.69 682.483L758.622 682.605C757.225 685.257 760.886 688.268 763.058 686.039L763.277 685.804C765.854 683.142 769.81 686.72 769.859 689.553C769.93 693.541 767.333 696.624 764.24 698.661L764.024 698.802L763.453 699.156C760.915 700.834 762.837 704.341 765.627 703.915C769.08 703.386 771.91 700.647 773.655 697.228C775.519 697.762 777.64 697.697 779.603 698.796C784.55 701.562 781.705 706.403 778.484 709.328L778.353 709.446L778.091 709.674C772.18 714.714 764.133 716.465 756.548 716.84L756.111 716.86C748.449 717.188 738.466 717.298 731.899 712.791C727.812 709.987 726.629 706.01 730.088 702.243C732.044 700.114 734.018 697.967 736.051 695.891C739.094 697.344 741.811 696.755 744.923 695.38C745.322 695.203 745.101 694.593 744.71 694.593C742.993 694.592 736.694 691.405 736.388 689.369C736.105 687.484 739.589 685.895 741.284 684.985L741.53 684.85L741.743 684.726C743.515 683.653 745.183 682.403 746.708 680.999C750.579 677.436 753.39 672.967 754.618 668.076L754.725 667.631Z" fill="white"/>
<path fill-rule="evenodd" clip-rule="evenodd" d="M383.796 383.08C387.271 374.347 399.019 377.742 397.709 386.917C396.925 392.412 393.915 398.217 391.212 403.034C389.01 406.954 386.499 410.781 383.094 413.719C389.155 419.374 395.446 424.822 401.897 429.995C408.936 435.639 416.337 440.842 423.988 445.623C430.697 449.817 437.708 453.532 444.032 458.317C449.912 462.765 455.269 468.115 457.994 475.099C460.898 482.536 459.636 490.216 457.498 497.649L457.252 498.489C455.068 505.852 451.286 514.728 456.53 521.665C459.199 525.197 463.08 527.698 466.43 530.521C469.408 533.031 472.204 535.76 474.767 538.691C480.357 545.081 484.904 552.272 487.773 560.283L488.029 561.011C490.489 568.104 492.286 576.792 488.963 583.755C488.009 585.751 484.935 585.103 484.401 583.159C483.194 578.756 483.257 574.145 482.244 569.679C481.191 565.035 479.438 560.627 477.149 556.457C472.72 548.389 466.721 541.497 459.634 535.67L457.513 533.945C451.984 529.408 446.905 524.595 445.782 517.086C444.582 509.052 447.801 501.399 449.87 493.795C451.313 488.496 451.784 483.416 450.225 478.627C448.321 481.735 445.723 484.686 443.668 487.317C439.575 492.56 435.444 497.77 431.323 502.991C427.099 508.344 422.978 513.782 419.054 519.36C417.299 521.856 415.563 524.366 413.832 526.879C412.53 528.768 410.716 530.655 409.297 532.581C409.642 533.611 409.616 534.799 408.991 535.643C401.468 545.807 390.765 524.599 387.974 519.241C382.29 508.329 378.06 496.736 372.357 485.827C366.447 474.517 359.718 463.509 352.218 453.185C347.682 446.94 342.597 441.074 338.447 434.63C328.67 443.495 315.805 449.438 303.988 454.828C291.004 460.748 277.515 465.585 264.203 470.721L260.271 472.248C237.334 481.199 213.837 491.034 194.772 506.934C172.369 525.618 159.115 551.661 149.248 578.628C137.89 609.674 128.493 641.557 119.734 673.42C115.251 689.723 110.998 706.099 106.999 722.528C103.476 737.002 100.555 751.621 96.4763 765.945C104.749 765.653 114.183 768.856 121.246 769.78C153.433 773.993 185.187 780.709 215.575 792.337C219.329 793.774 220.415 797.523 219.598 800.561C221.762 799.95 223.926 799.331 226.09 798.723C223.719 795.089 224.851 788.592 225.037 784.565L225.048 784.288C225.24 778.921 225.822 773.548 226.2 768.19C226.919 757.978 227.855 747.84 229.1 737.686L229.417 735.147C230.828 724.1 231.87 712.988 233.409 701.96L233.591 700.698C232.853 697.876 231.994 695.089 231.092 692.314C228.689 684.922 225.297 677.965 222.325 670.806C221.975 669.963 223.175 669.479 223.736 669.984C228.77 674.513 232.769 680.257 235.981 686.266C236.037 685.982 236.086 685.698 236.144 685.415L236.51 683.611C237.414 679.211 238.514 674.581 241.213 671.013C241.5 670.634 242.069 670.554 242.341 671.013C244.924 675.384 245.213 680.92 245.61 685.894C246.06 691.521 246.116 697.219 246.037 702.861C245.882 713.888 245.105 724.945 244.486 735.954C243.878 746.772 242.685 757.453 241.148 768.164L240.856 770.173C240.104 775.272 239.489 780.434 238.498 785.497L238.218 786.876C237.688 789.387 237.362 792.928 236.307 795.869C263.448 788.299 290.631 780.901 317.866 773.634C337.549 768.38 357.254 763.206 376.95 757.998C377.989 756.125 379.283 754.376 380.899 752.812C386.22 747.659 393.272 745.36 399.74 749.326C400.265 749.65 400.31 750.474 399.74 750.786C398.5 751.463 397.259 752.158 396.039 752.882L407.866 749.679C416.706 747.283 425.651 744.289 434.699 742.619C451.364 734.395 469.288 728.443 486.843 722.56L488.912 721.86C497.901 718.795 507.198 715.365 516.485 713.666C523.284 712.422 531.264 713.923 533.998 720.888C537.46 723.169 540.716 725.85 543.859 728.486C546.131 730.391 548.308 732.417 550.523 734.389L550.931 734.747C552.742 736.318 554.176 737.37 554.621 739.871C554.85 741.162 554.029 742.908 552.436 742.737C547.562 742.216 543.599 736.566 540.293 733.192C537.74 730.584 535.165 727.888 532.834 725.022C531.476 725.762 529.613 725.629 528.748 723.991C524.263 715.499 511.977 721.383 505.179 723.397L495.441 726.28C490.572 727.723 485.705 729.173 480.846 730.649C467.493 734.704 454.205 739.242 440.73 742.967C441.935 744.292 441.769 746.649 439.479 747.546C428.932 751.684 417.36 753.825 406.402 756.664C399.484 758.459 392.57 760.264 385.658 762.08C384.473 763.999 383.62 766.172 383.261 768.7C381.942 777.996 384.486 788.722 386.964 797.714L387.338 799.055C389.375 806.284 392.371 815.146 398.609 819.711C400.131 820.824 402.07 821.599 404.024 821.774C416.233 815.49 428.442 809.206 440.658 802.934C442.921 801.772 445.012 803.345 445.52 805.216C449.827 804.509 454.124 803.395 458.039 802.067C464.615 799.833 469.751 795.573 475.916 792.627C487.847 786.928 500.03 793.928 510.711 799.25L513.173 800.46C517.963 802.785 527.928 807.249 530.227 800.893C532.449 794.744 525.421 788.172 520.882 785.404C515.472 782.104 509.172 780.338 503.057 778.867C499.565 778.027 496.031 777.342 492.476 776.841C488.443 776.274 484.277 776.359 480.394 775.051C478.464 774.402 478.168 771.337 480.394 770.831C486.371 769.471 493.506 770.955 499.743 772.471L503.004 773.274C509.288 774.816 515.633 776.752 521.357 779.828C525.52 782.066 529.913 785.465 532.783 789.625C535.275 787.31 538.377 787.389 541.608 788.247L543.362 788.735C546.258 789.537 548.605 790.09 551.423 789.534C551.8 787.484 552.182 785.433 552.59 783.382C556.606 763.222 561.01 743.139 565.869 723.164C574.251 688.709 583.95 654.632 594.884 620.905L595.982 617.533C598.504 609.819 600.533 601.414 604.599 594.327C608.444 587.625 614.605 583.765 621.925 581.721C630.232 579.401 638.96 578.187 647.434 576.621C649.324 576.272 651.219 575.94 653.111 575.597C651.512 572.71 650.319 569.433 649.244 566.918L649.056 566.483C646.746 561.217 644.671 555.857 642.668 550.468L641.17 546.417C637.552 536.662 633.818 527.067 628.733 517.942C623.38 508.34 616.278 500.49 607.425 493.992C589.375 480.744 567.619 473.986 550.112 459.827C549.395 459.247 550.314 458.255 551.042 458.622C562.864 464.562 575.625 468.601 587.92 473.436L590.346 474.393C600.064 478.246 609.933 482.439 618.345 488.677C627.723 495.632 635.109 504.27 640.66 514.541C646.132 524.666 649.631 535.999 653.491 546.813L654.524 549.695C656.081 554.016 657.689 558.324 659.532 562.529C660.995 565.868 663.724 569.678 664.965 573.492C668.36 572.903 671.754 572.313 675.152 571.745C748.757 559.456 823.183 552.235 897.775 550.123C900.693 550.04 902.203 552.825 901.773 555.371C894.614 597.699 888.253 640.173 881.273 682.533C878.226 701.021 875.119 719.496 871.939 737.961C870.328 747.316 868.465 756.635 866.939 766.004C865.707 773.57 864.813 781.195 862.698 788.586C860.801 795.213 857.891 801.603 853.11 806.659C847.957 812.109 840.764 814.747 833.523 815.993C815.144 819.157 796.291 820.448 777.762 822.556L679.112 833.779C680.553 846.882 680.661 859.782 680 873.038L679.623 880.274C679.314 886.095 678.946 891.924 678.11 897.685C677.062 904.911 673.756 911.03 668.887 916.428C664.416 921.384 658.984 925.614 653.7 929.666C648.216 933.875 642.549 937.936 636.101 940.538L635.264 940.871C629.607 943.079 618.995 946.499 611.263 945.249C612.273 950.314 614.229 955.758 612.495 960.769C611.691 963.096 608.648 964.257 606.784 962.277C603.091 958.353 602.803 953.17 601.928 948.051C601.018 942.724 600.234 937.378 599.537 932.02C598.189 921.658 597.139 911.201 596.819 900.752C596.49 890.021 596.617 879.275 597.195 868.556C597.492 863.051 597.861 857.55 598.56 852.08C598.858 849.747 599.162 847.413 599.51 845.086C599.637 844.238 599.778 843.393 599.93 842.551L591.075 843.55C577.498 845.065 563.915 846.434 550.242 846.647C548.623 846.671 547.377 845.934 546.563 844.86C545.696 846.273 544.185 847.284 542.022 847.276C522.928 847.204 505.147 840.961 487.78 833.603C479.026 829.892 470.408 825.876 461.641 822.198C453.458 818.764 444.71 816.314 436.725 812.447L415.741 823.453C415.587 823.995 415.39 824.506 415.18 824.935C413.814 827.724 411.12 829.236 408.369 830.376C405.728 831.472 402.994 831.812 400.329 831.535C384.415 839.875 368.498 848.206 352.569 856.518L336.637 864.823C304.895 881.351 273.277 898.149 241.335 914.288L238.983 915.472C227.95 921.004 216.103 926.612 203.859 930.797C203.641 933.896 203.779 936.91 204.039 940.19L204.101 940.905C204.466 944.781 205.249 949.638 202.139 952.398C200.522 953.833 197.632 953.839 196.532 951.675C194.536 947.751 196.328 941.565 196.96 937.301C197.185 935.785 197.458 934.227 197.863 932.715C183.826 936.894 169.365 938.92 155.081 936.573C141.174 934.291 130.402 925.53 121.719 914.813C112.555 903.505 106.043 890.326 102.549 876.198C98.5723 860.122 98.3126 843.52 98.406 827.054C98.5051 809.519 99.1538 791.897 101.287 774.481C98.9498 773.931 96.3584 773.456 93.9971 773.62C92.8275 775.491 90.5588 776.279 88.5088 776.036C84.0508 780.953 95.3584 785.977 98.9719 787.235C100.227 787.673 100.092 789.711 98.6451 789.649L97.7335 789.606C92.1499 789.309 86.3812 788.355 83.0982 783.167C80.4675 779.007 81.2578 774.08 84.3939 770.689C86.4653 751.104 91.4172 732.033 96.0259 712.928C100.549 694.176 105.578 675.545 110.909 657.007L113.299 648.71C121.693 619.644 130.467 590.343 142.045 562.432C147.827 548.495 154.487 534.815 163.515 522.663C171.931 511.335 181.866 501.641 193.287 493.362C214.578 477.927 239.561 468.601 264.107 459.715L265.206 459.318C277.926 454.716 290.615 450.06 303.191 445.075C314.313 440.666 324.967 435.076 336.037 430.601C335.677 429.948 335.33 429.288 334.996 428.62L334.791 428.792C334.756 428.82 334.72 428.847 334.683 428.872C333.57 429.644 331.931 429.265 331.014 428.399C328.423 425.955 329.3 423.242 331.029 420.707L331.254 420.385C333.369 417.422 335.255 414.29 337.207 411.221L338.429 409.301C341.705 404.172 345.148 399.01 349.516 394.771C351.539 392.807 353.754 391.338 356.101 390.243C355.9 389.818 357.659 388.951 358.158 389.388C365.592 386.667 374.146 387.237 382.251 387.987L383.796 383.08ZM674.338 834.321L664.002 835.496C652.631 836.79 641.255 838.041 629.877 839.28L605.165 841.966C605.102 843.375 604.931 844.752 604.9 845.816C604.738 851.301 604.618 856.789 604.504 862.275C604.276 873.273 604.526 884.282 605.25 895.259C605.952 905.895 606.876 916.533 608.312 927.097L608.607 929.209L608.777 930.319C609.949 930.432 611.101 930.989 612.058 932.133C614.148 934.629 621.717 932.203 624.673 931.151C629.534 929.422 634.111 926.499 638.335 923.569C642.46 920.707 646.174 917.371 649.743 913.856L652.664 910.968C655.569 908.081 658.477 905.006 660.257 901.375C662.67 896.45 662.982 890.406 663.69 885.043C664.561 878.446 665.599 871.851 666.696 865.287L674.338 834.321ZM374.281 765.078L373.209 765.36C334.263 775.708 295.375 786.362 256.309 796.254C236.977 801.15 217.553 805.69 198.196 810.492L195.063 811.276C179.793 815.135 164.339 819.78 152.646 830.856C152.214 831.264 151.588 830.637 151.994 830.204C164.596 816.788 182.52 811.109 199.73 806.185C202.911 805.276 206.096 804.387 209.278 803.482C185.873 795.138 162.099 787.879 137.776 782.702C131.513 781.369 125.177 780.39 118.919 779.052C114.554 778.118 110.292 776.768 105.973 775.648L102.577 774.794L102.531 785.529C102.475 800.735 102.502 815.928 103.278 831.131L103.424 833.947C104.33 850.866 105.742 868.137 111.746 884.09C116.625 897.053 124.402 909.266 134.572 918.709C139.718 923.486 145.251 927.205 152.09 929.042C158.44 930.746 165.093 930.946 171.62 930.491C202.931 928.307 230.803 911.298 258.002 897.215C302.489 874.182 346.981 851.159 391.514 828.214C390.31 827.391 389.177 826.443 388.145 825.377C382.174 819.21 379.024 810.767 376.955 802.591C374.752 793.888 373.435 784.56 373.282 775.575L374.281 765.078ZM430.944 837.106C431.337 836.894 431.793 837.159 431.811 837.603C431.948 841.004 430.069 844.359 428.664 847.423L428.516 847.75C426.81 851.545 424.941 855.29 423.009 858.976C419.148 866.34 415.134 873.625 410.946 880.807C402.523 895.256 393.163 909.096 382.099 921.676C379.6 924.518 375.491 920.874 377.094 917.814C384.826 903.063 393.839 889.136 403.117 875.329C407.762 868.417 412.404 861.497 417.094 854.616C419.051 851.744 421.033 848.883 423.068 846.066L424.296 844.38L430.944 837.106ZM892.843 558.572C853.761 559.752 814.725 562.301 775.829 566.295C739.656 570.009 703.615 574.954 667.777 581.118C660.292 582.405 652.816 583.745 645.349 585.138L640.87 585.981C633.402 587.396 624.279 587.98 617.63 591.969C610.62 596.175 608.725 604.965 606.393 612.213C603.651 620.738 600.978 629.287 598.378 637.857C588.051 671.882 578.619 706.202 570.204 740.749C566.027 757.897 562.321 775.141 558.415 792.351C554.946 807.643 551.118 822.761 547.118 837.899C547.611 837.516 548.216 837.224 548.946 837.069C568.805 832.844 589.078 831.007 609.235 828.673L611.185 828.445C632.037 825.993 652.889 823.559 673.753 821.213L811.89 805.679C820.037 804.763 828.765 804.638 836.693 802.452C850.173 798.734 853.332 783.664 855.594 771.662L855.662 771.3C862.48 735.038 867.908 698.462 874.267 662.109L892.843 558.572ZM550.333 795.747C544.97 795.393 537.63 790.481 533.561 790.833C535.697 794.418 536.661 798.505 535.43 802.871C532.004 815.019 516.51 808.733 509.047 805.022C502.928 801.978 497.02 798.253 490.245 796.827C482.571 795.214 477.372 798.265 470.888 801.783C465.563 804.672 459.763 806.747 453.799 807.82C450.628 808.392 447.615 808.453 444.609 808.23C444.428 808.377 444.224 808.514 443.991 808.636L442.401 809.471C449.593 809.8 456.918 812.019 463.611 814.051C470.547 816.156 477.356 818.694 484.128 821.288L490.791 823.849C507.225 830.143 524.237 836.119 542.022 836.066C543.301 836.063 544.348 836.417 545.173 836.994L550.333 795.747ZM520.327 757.683C525.626 757.035 530.516 757.73 534.75 761.179C539.855 765.338 543.286 772.236 550.626 772.689C552.766 772.82 553.263 775.83 551.136 776.459C545.672 778.076 541.249 775.12 537.526 771.282L535.023 768.667C531.345 764.858 527.952 761.913 521.71 762.141C515.025 762.385 508.328 763.93 501.687 764.715C494.163 765.605 486.641 766.363 479.094 767.018C478.743 767.048 478.683 766.496 479.012 766.415L487.465 764.311L520.327 757.683ZM515.213 736.023L516.087 735.935C523.78 735.188 530.817 735.159 537.688 739.298L539.006 740.095C545.201 743.86 551.944 748.296 555.818 754.393C556.452 755.391 555.404 756.565 554.344 756.311C546.898 754.524 541.455 749.061 535.193 744.972C528.166 740.384 520.907 741.141 512.894 741.853C505.136 742.544 497.382 743.492 489.701 744.786C482.483 745.999 475.241 747.916 467.95 748.527L467.952 748.512C467.119 748.511 466.644 747.26 467.493 746.836C474.893 743.141 483.462 741.392 491.511 739.704L515.213 736.023ZM748.937 659.98C748.193 656.422 752.568 654.773 754.596 657.595L755.027 658.19C759.409 664.192 765.745 671.723 765.422 679.357C769.273 679.441 773.266 681.781 774.766 685.257C775.46 686.864 775.695 688.769 775.542 690.742C779.043 691.014 782.86 693.312 785 695.549C788.548 699.259 788.828 704.501 786.283 708.835C780.734 718.283 768.613 721.72 758.381 722.487L758.016 722.514C747.448 723.244 732.218 723.047 724.972 713.979C717.981 705.233 725.707 698.151 733.63 694.306C731.567 692.423 730.499 689.723 731.503 686.875C733.267 681.87 739.492 679.936 743.01 676.457C747.298 672.214 750.132 666.395 749.002 660.312L748.937 659.98ZM754.745 667.671C753.58 672.736 750.716 677.368 746.728 681.039C745.203 682.443 743.535 683.693 741.763 684.767L741.55 684.89C739.977 685.774 736.11 687.428 736.408 689.409C736.714 691.445 743.013 694.632 744.73 694.634C745.121 694.634 745.342 695.244 744.943 695.421C741.831 696.795 739.114 697.384 736.071 695.932C734.038 698.007 732.064 700.155 730.108 702.284C726.649 706.05 727.832 710.028 731.919 712.832C738.486 717.338 748.469 717.228 756.131 716.901C763.843 716.572 772.087 714.852 778.111 709.715L778.373 709.486C781.647 706.574 784.637 701.64 779.623 698.836C777.66 697.738 775.539 697.803 773.675 697.269C771.93 700.688 769.1 703.427 765.647 703.955C762.857 704.382 760.935 700.874 763.473 699.197L764.044 698.842C767.231 696.808 769.951 693.674 769.879 689.593C769.83 686.761 765.874 683.183 763.297 685.844L763.179 685.972C761.022 688.403 757.224 685.339 758.642 682.646L758.71 682.523L754.745 667.671ZM251.76 526.814C251.75 526.205 252.606 525.978 252.905 526.504C257.911 535.311 260.528 546.107 263.195 555.81C265.988 565.974 268.242 576.242 270.268 586.585C274.37 607.528 276.556 628.351 276.705 649.697C276.725 652.745 271.76 653.556 271.275 650.433C268.05 629.669 264.961 608.885 261.711 588.127C260.077 577.687 258.174 567.287 256.353 556.877L251.76 526.814ZM301.318 542.154C300.95 540.939 302.717 540.533 303.169 541.644C313.216 566.304 316.618 594.251 310.168 620.268C309.181 624.248 303.352 622.524 304.097 618.594L301.318 542.154ZM430.904 520.242C430.853 519.333 432.033 519.189 432.478 519.815C437.238 526.522 439.213 535.504 447.565 538.971C451.734 540.701 456.427 540.4 460.111 543.323C462.574 545.278 464.462 548.364 462.614 551.325C462.017 552.282 460.348 552.761 459.539 551.721C458.358 550.207 457.733 548.394 456.129 547.258C453.866 545.657 450.814 545.558 448.219 544.805C444.863 543.832 441.904 542.13 439.482 539.6L430.904 520.242ZM510.431 408.375C510.921 408.125 511.392 408.285 511.706 408.709C512.154 409.313 512.099 409.901 511.55 410.316C512.283 411.814 513.149 415.567 513.273 416.113C513.774 418.328 514.307 420.529 514.865 422.729C515.99 427.166 516.977 431.637 518.103 436.075C519.297 440.78 520.72 445.434 522.303 450.022C522.405 450.319 522.517 450.622 522.635 450.93L522.815 451.395L522.86 451.324C523.182 450.816 523.851 451.171 523.772 451.708C523.698 452.198 523.599 452.685 523.516 453.175L523.682 453.614C524.717 456.401 525.426 459.337 523.526 461.796C522.815 462.716 522.033 463.261 521.059 463.423C519.496 468.575 517.535 473.631 515.436 478.486L514.821 479.904C511.733 486.989 508.44 493.98 503.523 500.012C498.155 506.597 490.772 511.093 486.096 518.309C483.92 521.665 482.407 525.195 481.178 528.985L480.716 530.424C479.844 533.105 478.838 535.704 476.323 537.276C475.52 537.777 474.318 537.618 473.671 536.934C468.513 531.478 473.912 521.291 477.022 516.009C481.345 508.664 487.602 503.965 493.867 498.424C500.62 492.45 504.927 484.46 509.093 476.588C511.645 471.766 514.109 466.839 516.703 461.995C513.993 459.6 513.126 454.842 512.207 451.536L512.124 451.239C510.606 445.943 509.4 440.51 508.639 435.052C507.906 429.805 507.6 424.633 507.794 419.357L507.85 418.013L510.431 408.375ZM520.507 433.349C519.908 432.528 520.899 431.598 521.721 431.77C526.715 432.802 531.598 435.826 536.081 438.27L536.56 438.53C540.138 440.46 543.739 442.823 545.618 446.572C547.661 450.646 547.493 455.339 547.214 459.767L547.188 460.181C546.846 465.491 546.791 471.008 545.668 476.222C545.093 478.89 542.676 479.642 540.609 479.011C538.15 486.775 531.244 492.495 526.198 498.622C519.766 506.432 520.976 516.977 521.649 526.384C521.92 530.192 517.183 531.275 514.743 529.243L509.12 524.573C508.184 523.793 507.249 523.012 506.316 522.228C505.517 521.556 504.726 520.878 503.941 520.193L502.768 519.157C502.248 518.692 499.954 516.129 499.283 516.023C497.658 515.765 493.798 520.047 492.477 521.39L492.31 521.557C489.823 523.995 487.577 526.619 485.484 529.401C485.099 529.912 484.346 529.488 484.622 528.897C486.497 524.881 488.677 521.04 491.266 517.446L491.789 516.73C493.511 514.409 495.824 510.311 498.864 509.625C502.576 508.789 506.283 512.512 508.984 514.578L509.155 514.707C510.44 515.671 511.71 516.653 512.978 517.64C512.846 510.637 513.73 503.56 517.346 497.525C519.896 493.268 523.716 490.116 526.985 486.458C530.624 482.385 532.524 477.379 535.818 473.137C536.242 472.592 536.827 472.298 537.46 472.204C537.587 468.794 538.089 465.35 538.477 461.977L538.589 460.967C538.982 457.302 539.909 452.825 538.114 449.393C536.419 446.151 532.53 443.862 529.65 441.662L527.298 439.838L520.507 433.349ZM358.408 394.593C356.904 395.463 355.499 396.545 354.223 397.897C350.209 402.156 347.339 407.455 344.546 412.552C343.043 415.298 341.593 418.073 340.077 420.812C339.418 422.004 338.74 423.183 338.054 424.36C337.737 424.902 336.795 425.98 336.328 426.644C336.847 427.371 337.383 428.086 337.93 428.794C338.139 429.064 352.538 444.75 357.558 450.889C365.243 460.292 372.114 470.225 377.987 480.856C383.738 491.267 388.117 502.289 393.445 512.901C396.111 518.214 399.089 523.49 402.886 528.088C403.032 528.267 403.187 528.437 403.337 528.614C404.786 524.7 408.498 520.509 410.321 518.103L410.492 517.875C414.627 512.301 418.994 506.895 423.456 501.58C427.532 496.727 431.711 491.979 435.991 487.309L437.601 485.561C440.583 482.34 444.371 477.52 448.737 475.218C448.269 474.385 447.728 473.56 447.105 472.746C443.015 467.401 437.233 463.522 431.528 460.022L427.828 457.771C413.882 449.272 400.152 440.38 388.045 429.337C381.639 423.494 375.322 417.373 369.937 410.558L368.033 408.148L358.408 394.593ZM381.678 390.386C375.147 390.934 368.095 390.804 362.059 392.932C367.425 398.004 372.525 403.481 377.764 408.638C378.23 405.15 379.183 401.704 379.991 398.303" fill="black"/>
<path fill-rule="evenodd" clip-rule="evenodd" d="M499.161 131.718C503.287 129.119 520.521 113.798 513.056 111.217C505.591 108.634 463.813 47.2612 363.338 99.2121C278.165 143.253 306.885 279.075 315.24 291.001C323.596 302.927 329.444 348.896 421.226 312.476C513.011 276.053 506.667 280.714 506.667 280.714L499.161 131.718Z" fill="#FFBE95"/>
<path fill-rule="evenodd" clip-rule="evenodd" d="M577.478 312.145C562.644 445.97 471.765 452.639 379.78 374.558C366.689 324.179 348.05 344.798 323.069 313.447C314.707 304.754 310.23 294.183 308.661 283.944C303.538 250.477 329.509 220.491 352.734 270.682C354.216 276.842 357.856 279.839 364.239 279.346C411.535 284.666 326.006 102.105 458.5 76.3504C499.947 68.2906 545.267 93.4531 560.9 119.478C596.181 178.219 588.277 259.526 583.167 282.862" fill="#FFBE95"/>
<path fill-rule="evenodd" clip-rule="evenodd" d="M379.78 374.559C397.23 389.151 416.416 400.835 437.28 408.952C438.088 410.582 437.162 411.409 435.836 412.048C416.035 403.887 386.395 397.832 379.78 374.559Z" fill="#5C4941"/>
<path fill-rule="evenodd" clip-rule="evenodd" d="M459.927 418.382C476.543 421.993 492.949 423.632 509.708 425.48C491.979 434.905 473.641 426.375 456.399 420.211C457.102 418.69 458.976 419.425 459.927 418.382Z" fill="#5C4941"/>
<path fill-rule="evenodd" clip-rule="evenodd" d="M459.927 418.382C458.75 418.989 457.576 419.6 456.399 420.211C449.503 417.675 441.921 416.396 435.837 412.05C436.318 411.019 436.798 409.981 437.282 408.951C445.151 411.397 452.953 413.879 459.927 418.382Z" fill="#473128"/>
<path fill-rule="evenodd" clip-rule="evenodd" d="M448.163 417.064C450.547 416.549 452.274 417.424 453.417 419.537C451.67 418.716 449.917 417.892 448.163 417.064Z" fill="#5C4941"/>
<path fill-rule="evenodd" clip-rule="evenodd" d="M554.772 143.203C555.386 143.668 556.004 144.135 556.618 144.597C556.004 144.135 555.386 143.668 554.772 143.203Z" fill="#E46B33"/>
<mask id="mask1" style="mask-type:alpha" maskUnits="userSpaceOnUse" x="288" y="110" width="123" height="172">
<path fill-rule="evenodd" clip-rule="evenodd" d="M288.241 110.107H410.344V281.705H288.241V110.107Z" fill="white"/>
</mask>
<g mask="url(#mask1)">
<path fill-rule="evenodd" clip-rule="evenodd" d="M384.147 271.614C385.344 285.395 369.953 280.788 361.066 281.545C347.749 282.401 351.924 263.784 343.664 256.758C332.075 238.23 317.05 253.004 306.741 265.741C298.315 218.944 271.142 151.144 304.234 110.107C338.655 121.308 377.646 129.403 410.344 144.959C390.743 183.963 383.781 228.118 384.147 271.614Z" fill="#0C0B0B"/>
</g>
<path fill-rule="evenodd" clip-rule="evenodd" d="M443.418 7.24838C454.23 0.146379 454.622 25.363 456.343 32.169C459.589 40.6424 478.973 20.4406 487.971 20.6856C516.904 11.1239 559.122 1.24414 583.928 22.4292C576.727 28.0517 566.376 26.9094 562.342 36.8433C507.409 101.449 416.763 60.5739 373.929 119.223C369.595 122.993 363.836 124.906 358.258 123.191C331.492 119.15 351.394 89.351 367.756 85.3291C404.109 73.5783 442.028 49.2177 443.418 7.24838Z" fill="#0C0B0B"/>
<path fill-rule="evenodd" clip-rule="evenodd" d="M548.371 135.016C493.674 88.6488 453.223 127.878 402.869 136.864C376.405 109.019 485.347 94.7835 504.757 101.726C539.395 104.749 575.032 96.0436 596.743 66.0541C599.463 63.9605 602.085 64.1036 604.599 66.4423C638.925 67.3046 629.974 45.83 645.486 42.0085C668.698 100.711 606.81 167.748 548.371 135.016Z" fill="#0C0B0B"/>
<path fill-rule="evenodd" clip-rule="evenodd" d="M598.549 66.1945C563.844 122.492 494.421 94.7966 441.442 106.229C423.824 107.973 374.094 133.762 415.538 138.557C413.804 140.692 412.076 142.824 410.345 144.959C374.994 133.403 338.603 124.328 304.235 110.108C314.157 97.724 339.335 125.432 342.036 104.485C362.534 65.1636 423.289 70.3532 437.627 22.5483C439.558 17.4509 441.49 12.3503 443.418 7.24976C449.126 56.5279 395.184 75.9311 358.84 92.407C341.635 103.754 342.867 123.462 366.391 122.476C369.445 123.017 371.119 121.025 372.77 118.995C384.483 91.1342 416.897 85.9764 443.638 82.5145C488.378 80.8281 528.744 63.4167 562.342 36.8414C562.472 37.9997 562.599 39.1547 562.73 40.3097C563.907 41.207 563.869 42.3461 563.382 43.5743C514.785 111.438 402.206 69.9937 379.891 124.636C383.56 128.808 391.308 128.178 394.757 123.319C455.019 60.8998 569.651 137.202 605.587 36.5328C612.737 45.0189 603.796 58.4179 598.549 66.1945Z" fill="#0C0B0B"/>
<path fill-rule="evenodd" clip-rule="evenodd" d="M437.626 22.5489C430.076 75.4034 352.857 65.8227 342.446 112.406C337.065 120.491 318.248 108.25 308.619 108.082C314.795 77.7739 337.6 57.9571 367.144 50.7691C381.205 49.4646 398.836 22.0334 401.111 48.6691C415.706 44.2399 427.12 33.2082 437.626 22.5489Z" fill="#0C0B0B"/>
<path fill-rule="evenodd" clip-rule="evenodd" d="M577.757 196.195C574.909 177.572 563.805 161.71 556.61 144.639C578.021 145.74 595.089 146.001 615.762 137.219C622.138 147.837 632.41 130.578 641.593 132.29C653.681 152.511 589.413 237.967 577.757 196.195Z" fill="#0C0B0B"/>
<path fill-rule="evenodd" clip-rule="evenodd" d="M617.634 138.201C597.378 146.171 577.943 151.44 556.608 144.638L556.634 144.733C553.207 142.178 551.122 138.267 548.37 135.016C610.051 160.7 662.129 102.493 645.488 42.0085C661.923 62.2295 651.27 94.9904 641.011 116.545C636.178 125.718 629.222 136.861 617.634 138.201Z" fill="#0C0B0B"/>
<path fill-rule="evenodd" clip-rule="evenodd" d="M598.549 66.1944C601.164 56.811 610.048 46.6448 604.785 36.8763C602.714 38.0123 601.447 34.8431 602.335 33.3158C613.44 30.9548 607.35 53.7977 603.277 59.261C601.078 62.5288 601.89 64.4666 604.597 66.4426C602.672 64.1452 600.62 64.858 598.549 66.1944Z" fill="#553122"/>
<path fill-rule="evenodd" clip-rule="evenodd" d="M625.915 133.148C628.871 130.768 631.823 128.391 634.776 126.011C635.05 128.467 635.32 130.927 635.591 133.383C630.503 140.263 621.963 143.912 613.893 143.664C614.45 141.427 616.229 139.938 617.632 138.201L617.651 138.255C618.596 137.45 620.136 137.755 620.865 136.546L620.811 136.594C622.605 135.579 624.734 135.063 625.915 133.148Z" fill="#0C0B0B"/>
<path fill-rule="evenodd" clip-rule="evenodd" d="M561.916 42.7155C562.187 41.9136 562.457 41.1118 562.731 40.31C576.031 49.3116 591.715 43.5459 602.336 33.3161C599.67 50.0243 571.478 54.0494 561.916 42.7155Z" fill="#0C0B0B"/>
<path fill-rule="evenodd" clip-rule="evenodd" d="M554.785 143.337C555.399 143.801 556.016 144.266 556.633 144.731C556.019 144.266 555.399 143.801 554.785 143.337Z" fill="#E46B33"/>
<path fill-rule="evenodd" clip-rule="evenodd" d="M561.916 42.7156C576.719 51.6917 593.054 45.1911 603.682 35.1108C604.048 35.6995 604.417 36.2881 604.789 36.8768C596.093 82.6166 546.866 99.0416 506.564 97.422C490.527 95.0992 474.255 99.5857 458.221 96.7824C456.449 82.3461 481.92 87.6758 490.594 83.3166C518.862 78.9861 541.928 62.2142 561.916 42.7156Z" fill="#0C0B0B"/>
<path fill-rule="evenodd" clip-rule="evenodd" d="M461.553 88.9991C460.439 91.5923 459.332 94.1888 458.221 96.782C434.803 101.755 409.382 106.694 394.103 127.039C391.675 130.176 389.314 130.93 385.884 129.616C360.152 125.168 395.175 102.163 405.049 96.6865C423.494 93.931 442.248 87.9236 461.553 88.9991Z" fill="#0C0B0B"/>
<path fill-rule="evenodd" clip-rule="evenodd" d="M603.682 35.1117C603.042 35.1403 602.403 35.1658 601.76 35.1912C601.932 34.6312 602.107 34.0712 602.278 33.508C602.743 34.0426 603.214 34.5771 603.682 35.1117Z" fill="#D8642E"/>
<path d="M304.357 264.316C303.735 265.959 304.562 267.796 306.206 268.419C307.849 269.041 309.686 268.214 310.308 266.571C314.575 255.31 320.505 250.378 328.455 251.073C336.315 251.759 343.555 261.95 349.542 281.777C350.05 283.46 351.826 284.412 353.508 283.904C355.19 283.396 356.142 281.62 355.634 279.938C348.86 257.504 340.173 245.708 329.009 244.733C317.929 243.766 309.583 250.522 304.357 264.316Z" fill="#33241F"/>
<path d="M326.26 263.876C320.011 263.876 316.68 270.269 315.762 282.221L315.591 284.799C318.964 289.303 320.871 288.625 321.313 282.767C321.977 273.978 323.848 269.967 326.26 269.967L326.455 269.978L326.674 270.015C328.889 270.562 331.738 276.167 334.314 286.486L334.561 287.508L334.069 287.694C330.121 289.309 328.081 293.395 328.081 299.331C328.081 307.083 331.599 311.605 338.003 311.605H339.594C340.108 307.623 339.442 305.59 337.595 305.505C334.824 305.378 333.654 303.728 333.654 299.331C333.654 294.757 334.922 293.082 338.044 293.033L341.519 292.978L340.476 288.199L339.95 285.93C336.412 271.179 332.168 263.876 326.26 263.876Z" fill="#33241F"/>
<path fill-rule="evenodd" clip-rule="evenodd" d="M513.39 332.833C511.519 331.255 511.042 329.397 513.301 328.016C515.389 326.743 517.893 326.177 520.104 325.076C524.616 322.833 529.157 320.608 533.49 318.05C536.03 316.548 536.625 314.162 534.585 311.597C534.407 311.381 534.315 311.095 534.136 310.881C525.345 300.149 521.778 287.084 518.007 274.162C517.167 271.286 517.492 268.062 517.342 264.995C516.693 251.596 518.284 238.541 522.268 225.654C529.09 203.594 550.431 188.782 573.407 190.72C575.908 190.93 578.645 190.656 579.937 193.581C581.55 197.246 583.316 201.157 581.439 204.959C580.672 206.518 577.843 207.555 575.8 207.896C567.995 209.197 560.12 210.063 552.286 211.205C549.219 211.654 546.183 212.347 543.154 213.025C535.921 214.642 531.565 219.459 529.306 226.211C519.961 254.129 522.09 280.717 538.769 305.552C539.555 306.726 540.37 307.887 541.06 309.119C544.207 314.735 543.778 318.448 538.744 322.549C532.587 327.561 525.676 331.296 517.772 332.894C516.308 333.352 514.844 333.333 513.39 332.833Z" fill="#382925"/>
<mask id="mask2" style="mask-type:alpha" maskUnits="userSpaceOnUse" x="409" y="197" width="82" height="21">
<path fill-rule="evenodd" clip-rule="evenodd" d="M409.153 197.579H490.6V217.8H409.153V197.579Z" fill="white"/>
</mask>
<g mask="url(#mask2)">
<path fill-rule="evenodd" clip-rule="evenodd" d="M442.708 199.364C444.366 198.957 446.027 198.55 447.688 198.146C455.343 197.557 462.999 197.076 470.617 198.585C473.146 198.893 475.679 199.199 478.212 199.507C480.293 199.094 482.167 200.153 484.165 200.332C487.611 201.127 491.006 202.078 490.561 206.679C490.001 212.416 486.198 216.403 481.155 216.521C478.336 216.585 475.485 216.483 472.694 216.117C453.294 213.575 433.977 212.84 414.765 217.721C413.199 218.118 411.121 216.935 409.445 216.139C409.056 215.955 409.072 214.243 409.394 213.428C409.664 212.754 410.587 212.216 411.338 211.869C420.238 207.768 428.663 202.514 438.486 200.643C439.899 200.236 441.143 199.272 442.708 199.364Z" fill="#33241F"/>
</g>
<path fill-rule="evenodd" clip-rule="evenodd" d="M495.647 370.031C486.038 369.84 477.418 366.747 469.438 361.647C468.016 360.74 466.683 359.645 465.477 358.465C463.933 356.963 461.375 355.312 463.657 352.941C465.461 351.064 467.825 351.932 469.763 353.539C480.568 362.525 493.061 363.801 506.326 361.497C510.793 360.721 514.974 359.302 518.567 356.403C519.655 355.522 520.813 354.583 522.102 354.15C523.015 353.841 524.934 354.061 525.112 354.538C525.535 355.652 525.713 357.51 525.064 358.283C519.995 364.265 513.644 368.29 505.785 369.433C502.447 369.916 499.027 369.846 495.647 370.031Z" fill="#3B2C27"/>
<path fill-rule="evenodd" clip-rule="evenodd" d="M460.084 252.935C464.046 254.316 468.211 255.305 471.886 257.233C473.919 258.299 475.287 260.832 476.605 262.926C476.955 263.48 476.226 265.032 475.586 265.774C475.23 266.184 473.884 266.143 473.235 265.812C471.269 264.81 469.538 263.273 467.508 262.468C457.291 258.436 447.248 258.147 437.665 264.412C436.965 264.87 436.223 265.354 435.431 265.551C433.923 265.93 432.364 266.111 430.827 266.375C431.173 264.281 430.801 261.453 432.026 260.259C434.346 257.997 437.423 256.279 440.477 255.07C443.583 253.838 447.038 253.495 450.341 252.76C453.603 251.974 456.851 251.901 460.084 252.935Z" fill="#3C2D28"/>
<path fill-rule="evenodd" clip-rule="evenodd" d="M565.379 247.587C569.007 248.981 572.755 250.142 576.182 251.921C577.168 252.436 577.225 254.743 577.709 256.229C576.198 256.582 574.241 257.725 573.245 257.161C563.149 251.456 554.379 255.08 545.626 260.429C543.453 261.759 540.739 262.201 538.269 263.048C537.168 259.357 540.704 258.38 542.396 256.592C547.382 251.342 553.67 248.373 560.937 247.635C562.414 247.275 563.893 247.256 565.379 247.587Z" fill="#3D2E2A"/>
<path fill-rule="evenodd" clip-rule="evenodd" d="M470.616 198.584C462.973 198.438 455.33 198.292 447.688 198.145C455.353 197.162 463.012 196.452 470.616 198.584Z" fill="#645855"/>
<path fill-rule="evenodd" clip-rule="evenodd" d="M460.084 252.935C456.836 252.874 453.587 252.82 450.341 252.76C453.619 251.07 456.871 250.965 460.084 252.935Z" fill="#8E8683"/>
<path fill-rule="evenodd" clip-rule="evenodd" d="M484.166 200.331C482.18 200.057 480.195 199.78 478.209 199.506C480.195 199.78 482.18 200.057 484.166 200.331Z" fill="#645855"/>
<path fill-rule="evenodd" clip-rule="evenodd" d="M442.708 199.364C441.302 199.794 439.892 200.22 438.486 200.643C439.892 200.22 441.302 199.794 442.708 199.364Z" fill="#645855"/>
<path fill-rule="evenodd" clip-rule="evenodd" d="M565.379 247.587C563.9 247.603 562.417 247.619 560.937 247.635C562.417 247.619 563.9 247.603 565.379 247.587Z" fill="#9F9896"/>
<path fill-rule="evenodd" clip-rule="evenodd" d="M513.39 332.833C514.851 332.852 516.311 332.871 517.772 332.894C516.289 334.746 514.825 334.886 513.39 332.833Z" fill="#9B9391"/>
</g>
</g>
<defs>
<clipPath id="clip0">
<rect width="848.697" height="973.075" fill="white" transform="translate(65)"/>
</clipPath>
</defs>
</svg>
