<svg width="850" height="974" viewBox="0 0 850 974" fill="none" xmlns="http://www.w3.org/2000/svg">
<path fill-rule="evenodd" clip-rule="evenodd" d="M817.537 553.676C805.842 554.824 794.147 555.97 782.451 557.119C726.439 561.398 670.449 570.336 614.866 575.699C613.482 573.447 610.773 573.818 609.128 575.383C603.582 574.898 597.366 570.658 592.342 575.068C592.178 575.045 592.015 575.018 591.85 575.002C582.905 557.833 576.722 539.52 570.72 521.183C566.89 509.909 561.736 498.995 552.213 491.426C535.96 480.143 498.72 457.265 479.635 458.227C479.319 454.81 477.726 451.288 475.11 449.013C480.875 439.185 457.826 432.773 456.2 433.912C457.242 401.079 441.798 372.565 407.742 366.026C377.233 359.669 333.838 358.601 317.429 390.485C315.626 390.282 297.188 390.186 295.404 390.386C292.631 386.873 262.171 420.16 274.655 431.749C163.043 481.122 99.5806 475.231 68.6882 614.032C64.5118 627.071 64.2076 641.339 59.7976 654.088C44.1079 690.724 31.382 729.735 28.2148 769.599C20.5655 771.559 19.6858 785.046 28.5461 786.997C31.9305 787.743 34.7606 788.762 37.2284 790.694C35.2993 823.362 43.2003 897.988 48.1785 897.758C58.3292 930.063 103.607 939.18 135.662 927.828C130.136 938.224 135.662 944.76 135.662 950.315C251.004 954.679 377.119 952.166 492.429 958.15C507.179 957.941 522.693 961.773 537.242 959.567C546.114 957.44 546.129 943.49 537.13 941.765L576.454 933.224C575.575 932.892 592.663 921.526 605.579 900.285C617.6 876.525 609.418 847.844 614.866 821.999C657.41 818.52 700.658 817.032 742.736 809.827C748.474 826.993 773.31 806.463 781.204 798.205C781.194 798.192 781.185 798.18 781.175 798.166C784.995 797.121 788.059 793.541 788.162 789.301C790.841 785.473 791.403 780.077 788.834 776.378C800.61 708.424 818.564 639.042 825.053 570.449C827.347 569.942 829.507 568.936 831.339 567.386L831.19 567.238C834.294 563.778 834.897 557.807 829.724 554.867C825.551 552.494 822.066 553.23 817.537 553.676Z" fill="#FFBE95"/>
<path fill-rule="evenodd" clip-rule="evenodd" d="M372.734 808.009L381.744 813.742L455.457 837.494L500.504 843.227L537.36 837.494V900.56L544.731 959.53C541.455 965.536 510.332 965.536 451.361 959.53C413.769 955.701 276.38 953.844 245.099 953.026L243.327 952.978C206.569 951.918 170.258 951.918 134.395 952.978V930.864L236.774 880.084L328.506 828.485L372.734 808.009ZM320.504 385.331L327.273 390.386L312.492 414.67L384.496 472.913V519.433L407.292 540.994L420.322 519.433L438.682 495.016L451.73 455.437L447.287 429.362L456.222 428.52C456.265 430.303 456.258 432.101 456.2 433.912C457.826 432.773 480.875 439.185 475.11 449.013C477.726 451.288 479.319 454.81 479.635 458.227C498.72 457.265 535.96 480.143 552.213 491.426C561.736 498.995 566.89 509.909 570.72 521.183L571.622 523.933L572.553 526.756L573.491 529.578C578.674 545.086 584.271 560.455 591.85 575.002C592.015 575.018 592.178 575.045 592.342 575.068C597.366 570.658 603.582 574.898 609.128 575.383C610.735 573.854 613.356 573.465 614.767 575.546L614.866 575.699L545.763 589.312L500.175 749.224L460.474 716.998L439.164 720.167L382.889 740.464L317.438 757.465L168.021 798.659H148.993L38.2722 771.921L28.2939 768.627C31.589 729.101 44.2354 690.426 59.7976 654.088C64.2076 641.339 64.5118 627.071 68.6881 614.032C99.5806 475.231 163.043 481.122 274.655 431.749C262.171 420.16 292.631 386.873 295.404 390.386L295.579 390.371L295.957 390.351L296.444 390.334C300.798 390.207 315.811 390.303 317.429 390.485C318.368 388.661 319.395 386.945 320.504 385.331Z" fill="#726F78"/>
<path fill-rule="evenodd" clip-rule="evenodd" d="M828.582 558.531L826.524 570.001C826.035 570.162 825.537 570.297 825.033 570.409C824.386 577.247 823.625 584.092 822.768 590.944L810.007 662.069C807.805 674.652 805.716 687.261 803.642 699.876L800.893 713.425L799.191 721.846C795.516 740.083 791.946 758.261 788.814 776.337C789.287 777.018 789.653 777.756 789.92 778.531L789.679 779.55L789.512 780.23L789.34 780.901C786.869 790.402 782.568 799.616 772.432 802.412C764.787 804.52 756.399 804.711 748.505 805.543L747.63 805.638L609.492 821.173C592.801 823.049 576.117 824.982 559.435 826.936L544.974 828.632C524.817 830.966 504.545 832.803 484.685 837.028C483.955 837.184 483.351 837.475 482.858 837.859C486.857 822.721 490.685 807.602 494.155 792.311C498.06 775.1 501.766 757.856 505.943 740.708C514.358 706.161 523.791 671.841 534.117 637.816C536.284 630.675 538.501 623.548 540.767 616.437L542.357 611.467L543.58 607.506C545.474 601.467 547.817 595.26 553.369 591.929C559.867 588.03 568.728 587.384 576.098 586.035L581.088 585.098C588.555 583.705 596.031 582.365 603.516 581.077C639.354 574.913 675.395 569.969 711.568 566.255C749.21 562.389 786.982 559.877 824.8 558.649L828.582 558.531ZM485.72 795.677L486.072 795.706L480.913 836.954C480.088 836.376 479.04 836.023 477.762 836.026C460.837 836.076 444.612 830.666 428.92 824.719L426.53 823.809L419.867 821.248C413.095 818.653 406.286 816.116 399.351 814.011L396.547 813.165L395.122 812.744C389.871 811.211 384.347 809.818 378.884 809.471L378.14 809.43L379.731 808.595C379.963 808.473 380.167 808.337 380.348 808.189C383.355 808.412 386.367 808.351 389.539 807.78C395.503 806.706 401.302 804.631 406.628 801.743L409.006 800.453L409.98 799.937L410.623 799.603L411.263 799.28C415.836 797 420.21 795.572 425.985 796.787C432.54 798.167 438.285 801.7 444.195 804.685L445.244 805.207L445.949 805.548L446.668 805.886L447.395 806.219C455.387 809.815 468.105 813.696 471.169 802.83C472.4 798.465 471.436 794.377 469.3 790.793C473.281 790.448 480.392 795.141 485.72 795.677ZM684.645 659.776L684.741 660.271C685.871 666.355 683.038 672.174 678.749 676.416C675.232 679.896 669.006 681.829 667.243 686.834C666.239 689.682 667.307 692.383 669.369 694.266L668.894 694.5L668.43 694.738L667.976 694.977L667.534 695.219L667.104 695.462C660.098 699.487 654.392 706.033 660.711 713.939C667.879 722.908 682.857 723.198 693.409 722.497L694.12 722.447C704.353 721.68 716.474 718.243 722.022 708.794C724.567 704.46 724.287 699.218 720.74 695.509C718.6 693.271 714.782 690.973 711.281 690.701C711.435 688.729 711.2 686.824 710.506 685.216C709.005 681.741 705.013 679.401 701.161 679.317C701.473 671.937 695.563 664.653 691.211 658.754L690.767 658.149L690.335 657.554C688.339 654.776 684.066 656.332 684.645 659.776ZM690.485 667.631L694.449 682.483L694.381 682.605C692.985 685.257 696.646 688.268 698.817 686.039L699.036 685.804C701.613 683.142 705.569 686.72 705.619 689.553C705.689 693.541 703.093 696.624 700 698.661L699.783 698.802L699.213 699.156C696.674 700.834 698.596 704.341 701.387 703.915C704.84 703.386 707.67 700.647 709.414 697.228C711.278 697.762 713.399 697.697 715.363 698.796C720.31 701.562 717.465 706.403 714.243 709.328L714.112 709.446L713.85 709.674C707.94 714.714 699.893 716.465 692.307 716.84L691.87 716.86C684.208 717.188 674.226 717.298 667.659 712.791C663.572 709.987 662.388 706.01 665.847 702.243C667.803 700.114 669.778 697.967 671.81 695.891C674.853 697.344 677.571 696.755 680.682 695.38C681.081 695.203 680.86 694.593 680.469 694.593C678.753 694.592 672.453 691.405 672.147 689.369C671.864 687.484 675.349 685.895 677.043 684.985L677.289 684.85L677.502 684.726C679.274 683.653 680.943 682.403 682.468 680.999C686.338 677.436 689.15 672.967 690.377 668.076L690.485 667.631Z" fill="white"/>
<path fill-rule="evenodd" clip-rule="evenodd" d="M319.556 383.08C323.031 374.347 334.778 377.742 333.469 386.917C332.685 392.412 329.675 398.217 326.971 403.034C324.77 406.954 322.259 410.781 318.854 413.719C324.915 419.374 331.206 424.822 337.656 429.995C344.695 435.639 352.097 440.842 359.747 445.623C366.456 449.817 373.468 453.532 379.792 458.317C385.671 462.765 391.028 468.115 393.754 475.099C396.657 482.536 395.395 490.216 393.257 497.649L393.012 498.489C390.827 505.852 387.046 514.728 392.289 521.665C394.959 525.197 398.839 527.698 402.19 530.521C405.168 533.031 407.963 535.76 410.527 538.691C416.117 545.081 420.663 552.272 423.532 560.283L423.789 561.011C426.248 568.104 428.045 576.792 424.722 583.755C423.769 585.751 420.694 585.103 420.16 583.159C418.953 578.756 419.016 574.145 418.004 569.679C416.95 565.035 415.198 560.627 412.908 556.457C408.479 548.389 402.481 541.497 395.394 535.67L393.272 533.945C387.744 529.408 382.664 524.595 381.542 517.086C380.341 509.052 383.56 501.399 385.63 493.795C387.072 488.496 387.543 483.416 385.984 478.627C384.08 481.735 381.482 484.686 379.427 487.317C375.334 492.56 371.203 497.77 367.083 502.991C362.858 508.344 358.738 513.782 354.814 519.36C353.058 521.856 351.322 524.366 349.591 526.879C348.29 528.768 346.475 530.655 345.056 532.581C345.401 533.611 345.375 534.799 344.75 535.643C337.227 545.807 326.525 524.599 323.734 519.241C318.049 508.329 313.819 496.736 308.116 485.827C302.207 474.517 295.478 463.509 287.978 453.185C283.441 446.94 278.357 441.074 274.207 434.63C264.43 443.495 251.564 449.438 239.747 454.828C226.764 460.748 213.275 465.585 199.963 470.721L196.031 472.248C173.094 481.199 149.596 491.034 130.531 506.934C108.128 525.618 94.8747 551.661 85.0078 578.628C73.6495 609.674 64.2527 641.557 55.4931 673.42C51.0105 689.723 46.7573 706.099 42.7587 722.528C39.2352 737.002 36.3146 751.621 32.2358 765.945C40.508 765.653 49.9425 768.856 57.005 769.78C89.1923 773.993 120.946 780.709 151.335 792.337C155.089 793.774 156.175 797.523 155.357 800.561C157.522 799.95 159.685 799.331 161.85 798.723C159.478 795.089 160.61 788.592 160.796 784.565L160.808 784.288C161 778.921 161.582 773.548 161.959 768.19C162.678 757.978 163.614 747.84 164.859 737.686L165.177 735.147C166.587 724.1 167.63 712.988 169.169 701.96L169.35 700.698C168.612 697.876 167.753 695.089 166.852 692.314C164.448 684.922 161.057 677.965 158.085 670.806C157.734 669.963 158.935 669.479 159.496 669.984C164.53 674.513 168.528 680.257 171.74 686.266C171.796 685.982 171.845 685.698 171.903 685.415L172.27 683.611C173.174 679.211 174.273 674.581 176.972 671.013C177.26 670.634 177.828 670.554 178.1 671.013C180.683 675.384 180.973 680.92 181.37 685.894C181.819 691.521 181.876 697.219 181.796 702.861C181.642 713.888 180.864 724.945 180.245 735.954C179.638 746.772 178.445 757.453 176.907 768.164L176.615 770.173C175.864 775.272 175.248 780.434 174.257 785.497L173.977 786.876C173.447 789.387 173.121 792.928 172.066 795.869C199.208 788.299 226.39 780.901 253.625 773.634C273.309 768.38 293.013 763.206 312.709 757.998C313.749 756.125 315.043 754.376 316.658 752.812C321.979 747.659 329.031 745.36 335.499 749.326C336.025 749.65 336.069 750.474 335.499 750.786C334.26 751.463 333.018 752.158 331.799 752.882L343.626 749.679C352.465 747.283 361.411 744.289 370.459 742.619C387.124 734.395 405.047 728.443 422.603 722.56L424.671 721.86C433.66 718.795 442.957 715.365 452.244 713.666C459.043 712.422 467.024 713.923 469.758 720.888C473.219 723.169 476.475 725.85 479.618 728.486C481.89 730.391 484.068 732.417 486.283 734.389L486.691 734.747C488.501 736.318 489.936 737.37 490.38 739.871C490.61 741.162 489.789 742.908 488.196 742.737C483.322 742.216 479.358 736.566 476.053 733.192C473.499 730.584 470.925 727.888 468.594 725.022C467.235 725.762 465.373 725.629 464.508 723.991C460.023 715.499 447.736 721.383 440.938 723.397L431.2 726.28C426.331 727.723 421.464 729.173 416.606 730.649C403.252 734.704 389.964 739.242 376.489 742.967C377.695 744.292 377.529 746.649 375.239 747.546C364.691 751.684 353.12 753.825 342.162 756.664C335.243 758.459 328.329 760.264 321.417 762.08C320.232 763.999 319.38 766.172 319.021 768.7C317.702 777.996 320.246 788.722 322.724 797.714L323.097 799.055C325.134 806.284 328.131 815.146 334.368 819.711C335.891 820.824 337.829 821.599 339.783 821.774C351.993 815.49 364.201 809.206 376.417 802.934C378.68 801.772 380.771 803.345 381.279 805.216C385.586 804.509 389.884 803.395 393.798 802.067C400.375 799.833 405.51 795.573 411.676 792.627C423.606 786.928 435.789 793.928 446.471 799.25L448.932 800.46C453.722 802.785 463.688 807.249 465.986 800.893C468.209 794.744 461.181 788.172 456.642 785.404C451.231 782.104 444.931 780.338 438.816 778.867C435.325 778.027 431.791 777.342 428.235 776.841C424.202 776.274 420.037 776.359 416.154 775.051C414.224 774.402 413.927 771.337 416.154 770.831C422.131 769.471 429.265 770.955 435.503 772.471L438.763 773.274C445.047 774.816 451.392 776.752 457.117 779.828C461.279 782.066 465.672 785.465 468.542 789.625C471.035 787.31 474.136 787.389 477.368 788.247L479.121 788.735C482.017 789.537 484.365 790.09 487.183 789.534C487.559 787.484 487.941 785.433 488.35 783.382C492.366 763.222 496.769 743.139 501.629 723.164C510.011 688.709 519.71 654.632 530.644 620.905L531.741 617.533C534.263 609.819 536.293 601.414 540.359 594.327C544.204 587.625 550.365 583.765 557.684 581.721C565.991 579.401 574.719 578.187 583.193 576.621C585.084 576.272 586.979 575.94 588.871 575.597C587.272 572.71 586.078 569.433 585.003 566.918L584.815 566.483C582.506 561.217 580.431 555.857 578.428 550.468L576.929 546.417C573.312 536.662 569.578 527.067 564.492 517.942C559.139 508.34 552.037 500.49 543.184 493.992C525.134 480.744 503.378 473.986 485.871 459.827C485.154 459.247 486.074 458.255 486.802 458.622C498.623 464.562 511.384 468.601 523.68 473.436L526.105 474.393C535.823 478.246 545.693 482.439 554.104 488.677C563.482 495.632 570.868 504.27 576.42 514.541C581.891 524.666 585.391 535.999 589.251 546.813L590.283 549.695C591.84 554.016 593.448 558.324 595.291 562.529C596.754 565.868 599.484 569.678 600.725 573.492C604.12 572.903 607.514 572.313 610.912 571.745C684.516 559.456 758.943 552.235 833.535 550.123C836.453 550.04 837.962 552.825 837.532 555.371C830.374 597.699 824.012 640.173 817.033 682.533C813.986 701.021 810.878 719.496 807.698 737.961C806.087 747.316 804.225 756.635 802.699 766.004C801.467 773.57 800.572 781.195 798.458 788.586C796.561 795.213 793.65 801.603 788.869 806.659C783.716 812.109 776.523 814.747 769.283 815.993C750.903 819.157 732.05 820.448 713.521 822.556L614.871 833.779C616.313 846.882 616.42 859.782 615.759 873.038L615.382 880.274C615.074 886.095 614.705 891.924 613.869 897.685C612.821 904.911 609.515 911.03 604.646 916.428C600.175 921.384 594.743 925.614 589.46 929.666C583.975 933.875 578.309 937.936 571.86 940.538L571.023 940.871C565.366 943.079 554.754 946.499 547.022 945.249C548.033 950.314 549.989 955.758 548.255 960.769C547.451 963.096 544.408 964.257 542.544 962.277C538.851 958.353 538.562 953.17 537.688 948.051C536.778 942.724 535.993 937.378 535.296 932.02C533.948 921.658 532.899 911.201 532.579 900.752C532.249 890.021 532.376 879.275 532.954 868.556C533.252 863.051 533.62 857.55 534.319 852.08C534.617 849.747 534.922 847.413 535.27 845.086C535.397 844.238 535.538 843.393 535.689 842.551L526.835 843.55C513.258 845.065 499.675 846.434 486.002 846.647C484.382 846.671 483.137 845.934 482.323 844.86C481.455 846.273 479.945 847.284 477.782 847.276C458.688 847.204 440.906 840.961 423.54 833.603C414.786 829.892 406.168 825.876 397.401 822.198C389.218 818.764 380.47 816.314 372.484 812.447L351.501 823.453C351.347 823.995 351.149 824.506 350.939 824.935C349.573 827.724 346.88 829.236 344.128 830.376C341.488 831.472 338.753 831.812 336.089 831.535C320.175 839.875 304.257 848.206 288.329 856.518L272.396 864.823C240.654 881.351 209.037 898.149 177.094 914.288L174.743 915.472C163.71 921.004 151.863 926.612 139.619 930.797C139.401 933.896 139.538 936.91 139.798 940.19L139.86 940.905C140.226 944.781 141.008 949.638 137.899 952.398C136.281 953.833 133.392 953.839 132.292 951.675C130.296 947.751 132.088 941.565 132.72 937.301C132.944 935.785 133.218 934.227 133.622 932.715C119.586 936.894 105.124 938.92 90.8402 936.573C76.933 934.291 66.1618 925.53 57.4784 914.813C48.3142 903.505 41.8021 890.326 38.3081 876.198C34.3317 860.122 34.072 843.52 34.1654 827.054C34.2645 809.519 34.9132 791.897 37.046 774.481C34.7093 773.931 32.1178 773.456 29.7565 773.62C28.587 775.491 26.3182 776.279 24.2682 776.036C19.8102 780.953 31.1178 785.977 34.7314 787.235C35.9861 787.673 35.8518 789.711 34.4046 789.649L33.493 789.606C27.9093 789.309 22.1406 788.355 18.8577 783.167C16.2269 779.007 17.0173 774.08 20.1534 770.689C22.2247 751.104 27.1766 732.033 31.7853 712.928C36.308 694.176 41.3377 675.545 46.6688 657.007L49.0588 648.71C57.4525 619.644 66.226 590.343 77.8044 562.432C83.586 548.495 90.2464 534.815 99.2746 522.663C107.69 511.335 117.626 501.641 129.047 493.362C150.337 477.927 175.32 468.601 199.866 459.715L200.965 459.318C213.686 454.716 226.375 450.06 238.95 445.075C250.072 440.666 260.727 435.076 271.796 430.601C271.437 429.948 271.089 429.288 270.755 428.62L270.551 428.792C270.516 428.82 270.48 428.847 270.442 428.872C269.329 429.644 267.69 429.265 266.773 428.399C264.183 425.955 265.06 423.242 266.789 420.707L267.014 420.385C269.129 417.422 271.015 414.29 272.967 411.221L274.189 409.301C277.465 404.172 280.908 399.01 285.276 394.771C287.299 392.807 289.513 391.338 291.86 390.243C291.659 389.818 293.419 388.951 293.917 389.388C301.352 386.667 309.905 387.237 318.01 387.987L319.556 383.08ZM610.098 834.321L599.761 835.496C588.39 836.79 577.014 838.041 565.637 839.28L540.924 841.966C540.861 843.375 540.69 844.752 540.659 845.816C540.498 851.301 540.377 856.789 540.264 862.275C540.035 873.273 540.286 884.282 541.01 895.259C541.711 905.895 542.636 916.533 544.072 927.097L544.366 929.209L544.536 930.319C545.708 930.432 546.86 930.989 547.817 932.133C549.908 934.629 557.476 932.203 560.432 931.151C565.293 929.422 569.871 926.499 574.095 923.569C578.219 920.707 581.934 917.371 585.503 913.856L588.423 910.968C591.328 908.081 594.236 905.006 596.016 901.375C598.43 896.45 598.742 890.406 599.449 885.043C600.321 878.446 601.359 871.851 602.455 865.287L610.098 834.321ZM310.04 765.078L308.968 765.36C270.022 775.708 231.134 786.362 192.069 796.254C172.736 801.15 153.312 805.69 133.956 810.492L130.822 811.276C115.552 815.135 100.099 819.78 88.4052 830.856C87.9736 831.264 87.347 830.637 87.7532 830.204C100.356 816.788 118.279 811.109 135.489 806.185C138.67 805.276 141.855 804.387 145.037 803.482C121.633 795.138 97.8585 787.879 73.5356 782.702C67.2724 781.369 60.9364 780.39 54.6782 779.052C50.3136 778.118 46.0512 776.768 41.7328 775.648L38.3359 774.794L38.2908 785.529C38.2343 800.735 38.2613 815.928 39.037 831.131L39.1839 833.947C40.089 850.866 41.5017 868.137 47.5059 884.09C52.3848 897.053 60.1616 909.266 70.3315 918.709C75.4775 923.486 81.0101 927.205 87.8491 929.042C94.199 930.746 100.852 930.946 107.38 930.491C138.691 928.307 166.562 911.298 193.761 897.215C238.248 874.182 282.741 851.159 327.273 828.214C326.069 827.391 324.936 826.443 323.905 825.377C317.933 819.21 314.783 810.767 312.714 802.591C310.512 793.888 309.195 784.56 309.042 775.575L310.04 765.078ZM366.704 837.106C367.097 836.894 367.552 837.159 367.57 837.603C367.708 841.004 365.828 844.359 364.424 847.423L364.275 847.75C362.569 851.545 360.701 855.29 358.769 858.976C354.907 866.34 350.894 873.625 346.705 880.807C338.282 895.256 328.922 909.096 317.859 921.676C315.36 924.518 311.25 920.874 312.854 917.814C320.585 903.063 329.599 889.136 338.877 875.329C343.522 868.417 348.163 861.497 352.854 854.616C354.81 851.744 356.792 848.883 358.828 846.066L360.055 844.38L366.704 837.106ZM828.602 558.572C789.52 559.752 750.484 562.301 711.588 566.295C675.415 570.009 639.374 574.954 603.536 581.118C596.051 582.405 588.575 583.745 581.108 585.138L576.629 585.981C569.162 587.396 560.038 587.98 553.389 591.969C546.379 596.175 544.485 604.965 542.152 612.213C539.41 620.738 536.738 629.287 534.137 637.857C523.811 671.882 514.378 706.202 505.963 740.749C501.786 757.897 498.08 775.141 494.175 792.351C490.705 807.643 486.877 822.761 482.878 837.899C483.371 837.516 483.975 837.224 484.705 837.069C504.565 832.844 524.837 831.007 544.994 828.673L546.944 828.445C567.796 825.993 588.648 823.559 609.512 821.213L747.65 805.679C755.797 804.763 764.524 804.638 772.453 802.452C785.932 798.734 789.092 783.664 791.353 771.662L791.421 771.3C798.24 735.038 803.668 698.462 810.027 662.109L828.602 558.572ZM486.093 795.747C480.729 795.393 473.389 790.481 469.32 790.833C471.456 794.418 472.42 798.505 471.189 802.871C467.763 815.019 452.27 808.733 444.807 805.022C438.688 801.978 432.779 798.253 426.005 796.827C418.331 795.214 413.131 798.265 406.648 801.783C401.322 804.672 395.523 806.747 389.559 807.82C386.387 808.392 383.375 808.453 380.368 808.23C380.187 808.377 379.983 808.514 379.751 808.636L378.16 809.471C385.352 809.8 392.677 812.019 399.371 814.051C406.306 816.156 413.115 818.694 419.887 821.288L426.55 823.849C442.984 830.143 459.996 836.119 477.782 836.066C479.06 836.063 480.108 836.417 480.933 836.994L486.093 795.747ZM456.087 757.683C461.385 757.035 466.275 757.73 470.509 761.179C475.615 765.338 479.045 772.236 486.385 772.689C488.525 772.82 489.023 775.83 486.895 776.459C481.432 778.076 477.008 775.12 473.286 771.282L470.783 768.667C467.104 764.858 463.711 761.913 457.469 762.141C450.784 762.385 444.088 763.93 437.446 764.715C429.923 765.605 422.401 766.363 414.853 767.018C414.503 767.048 414.443 766.496 414.771 766.415L423.225 764.311L456.087 757.683ZM450.972 736.023L451.846 735.935C459.54 735.188 466.576 735.159 473.447 739.298L474.765 740.095C480.96 743.86 487.703 748.296 491.578 754.393C492.211 755.391 491.164 756.565 490.103 756.311C482.657 754.524 477.214 749.061 470.953 744.972C463.925 740.384 456.666 741.141 448.654 741.853C440.896 742.544 433.142 743.492 425.46 744.786C418.242 745.999 411.001 747.916 403.71 748.527L403.711 748.512C402.879 748.511 402.403 747.26 403.253 746.836C410.652 743.141 419.222 741.392 427.27 739.704L450.972 736.023ZM684.696 659.98C683.952 656.422 688.328 654.773 690.356 657.595L690.787 658.19C695.168 664.192 701.504 671.723 701.182 679.357C705.033 679.441 709.025 681.781 710.526 685.257C711.22 686.864 711.455 688.769 711.302 690.742C714.802 691.014 718.62 693.312 720.76 695.549C724.307 699.259 724.587 704.501 722.042 708.835C716.494 718.283 704.373 721.72 694.14 722.487L693.776 722.514C683.207 723.244 667.978 723.047 660.731 713.979C653.741 705.233 661.467 698.151 669.389 694.306C667.327 692.423 666.259 689.723 667.263 686.875C669.026 681.87 675.252 679.936 678.769 676.457C683.058 672.214 685.892 666.395 684.762 660.312L684.696 659.98ZM690.505 667.671C689.339 672.736 686.476 677.368 682.488 681.039C680.963 682.443 679.294 683.693 677.522 684.767L677.309 684.89C675.736 685.774 671.87 687.428 672.167 689.409C672.474 691.445 678.773 694.632 680.489 694.634C680.88 694.634 681.101 695.244 680.702 695.421C677.591 696.795 674.873 697.384 671.831 695.932C669.798 698.007 667.823 700.155 665.867 702.284C662.408 706.05 663.592 710.028 667.679 712.832C674.246 717.338 684.228 717.228 691.89 716.901C699.602 716.572 707.846 714.852 713.87 709.715L714.132 709.486C717.406 706.574 720.397 701.64 715.383 698.836C713.42 697.738 711.298 697.803 709.434 697.269C707.69 700.688 704.86 703.427 701.407 703.955C698.616 704.382 696.694 700.874 699.233 699.197L699.803 698.842C702.991 696.808 705.711 693.674 705.639 689.593C705.59 686.761 701.633 683.183 699.056 685.844L698.938 685.972C696.782 688.403 692.983 685.339 694.401 682.646L694.47 682.523L690.505 667.671ZM187.519 526.814C187.51 526.205 188.366 525.978 188.665 526.504C193.671 535.311 196.287 546.107 198.954 555.81C201.747 565.974 204.002 576.242 206.027 586.585C210.13 607.528 212.316 628.351 212.464 649.697C212.485 652.745 207.52 653.556 207.034 650.433C203.809 629.669 200.72 608.885 197.471 588.127C195.836 577.687 193.934 567.287 192.113 556.877L187.519 526.814ZM237.078 542.154C236.709 540.939 238.477 540.533 238.929 541.644C248.975 566.304 252.377 594.251 245.927 620.268C244.941 624.248 239.111 622.524 239.856 618.594L237.078 542.154ZM366.663 520.242C366.613 519.333 367.793 519.189 368.238 519.815C372.998 526.522 374.973 535.504 383.324 538.971C387.494 540.701 392.186 540.4 395.87 543.323C398.333 545.278 400.222 548.364 398.373 551.325C397.777 552.282 396.108 552.761 395.298 551.721C394.117 550.207 393.493 548.394 391.888 547.258C389.625 545.657 386.573 545.558 383.979 544.805C380.622 543.832 377.664 542.13 375.241 539.6L366.663 520.242ZM446.19 408.375C446.681 408.125 447.152 408.285 447.465 408.709C447.913 409.313 447.859 409.901 447.31 410.316C448.043 411.814 448.909 415.567 449.032 416.113C449.534 418.328 450.067 420.529 450.624 422.729C451.75 427.166 452.736 431.637 453.862 436.075C455.056 440.78 456.479 445.434 458.062 450.022C458.164 450.319 458.277 450.622 458.394 450.93L458.575 451.395L458.619 451.324C458.941 450.816 459.611 451.171 459.531 451.708C459.458 452.198 459.359 452.685 459.275 453.175L459.441 453.614C460.477 456.401 461.186 459.337 459.286 461.796C458.575 462.716 457.793 463.261 456.818 463.423C455.255 468.575 453.295 473.631 451.195 478.486L450.58 479.904C447.492 486.989 444.199 493.98 439.282 500.012C433.915 506.597 426.531 511.093 421.855 518.309C419.68 521.665 418.166 525.195 416.938 528.985L416.475 530.424C415.603 533.105 414.597 535.704 412.082 537.276C411.28 537.777 410.077 537.618 409.43 536.934C404.273 531.478 409.672 521.291 412.782 516.009C417.105 508.664 423.361 503.965 429.626 498.424C436.379 492.45 440.686 484.46 444.853 476.588C447.405 471.766 449.869 466.839 452.462 461.995C449.752 459.6 448.885 454.842 447.967 451.536L447.883 451.239C446.366 445.943 445.16 440.51 444.398 435.052C443.665 429.805 443.359 424.633 443.553 419.357L443.609 418.013L446.19 408.375ZM456.266 433.349C455.668 432.528 456.659 431.598 457.48 431.77C462.475 432.802 467.358 435.826 471.841 438.27L472.319 438.53C475.898 440.46 479.498 442.823 481.377 446.572C483.421 450.646 483.252 455.339 482.974 459.767L482.947 460.181C482.606 465.491 482.551 471.008 481.427 476.222C480.852 478.89 478.435 479.642 476.369 479.011C473.91 486.775 467.003 492.495 461.958 498.622C455.525 506.432 456.736 516.977 457.408 526.384C457.68 530.192 452.943 531.275 450.503 529.243L444.88 524.573C443.943 523.793 443.008 523.012 442.076 522.228C441.277 521.556 440.485 520.878 439.7 520.193L438.528 519.157C438.007 518.692 435.713 516.129 435.043 516.023C433.418 515.765 429.558 520.047 428.237 521.39L428.069 521.557C425.583 523.995 423.336 526.619 421.243 529.401C420.859 529.912 420.106 529.488 420.381 528.897C422.256 524.881 424.436 521.04 427.025 517.446L427.548 516.73C429.271 514.409 431.583 510.311 434.623 509.625C438.336 508.789 442.042 512.512 444.743 514.578L444.914 514.707C446.199 515.671 447.47 516.653 448.738 517.64C448.605 510.637 449.49 503.56 453.106 497.525C455.655 493.268 459.475 490.116 462.744 486.458C466.383 482.385 468.283 477.379 471.577 473.137C472.002 472.592 472.586 472.298 473.219 472.204C473.346 468.794 473.848 465.35 474.236 461.977L474.349 460.967C474.741 457.302 475.668 452.825 473.874 449.393C472.179 446.151 468.289 443.862 465.409 441.662L463.058 439.838L456.266 433.349ZM294.167 394.593C292.663 395.463 291.258 396.545 289.983 397.897C285.969 402.156 283.099 407.455 280.306 412.552C278.802 415.298 277.352 418.073 275.836 420.812C275.177 422.004 274.499 423.183 273.813 424.36C273.496 424.902 272.555 425.98 272.088 426.644C272.606 427.371 273.143 428.086 273.69 428.794C273.899 429.064 288.298 444.75 293.317 450.889C301.003 460.292 307.873 470.225 313.746 480.856C319.498 491.267 323.876 502.289 329.204 512.901C331.871 518.214 334.849 523.49 338.645 528.088C338.792 528.267 338.946 528.437 339.096 528.614C340.545 524.7 344.258 520.509 346.081 518.103L346.251 517.875C350.387 512.301 354.754 506.895 359.216 501.58C363.291 496.727 367.47 491.979 371.751 487.309L373.361 485.561C376.343 482.34 380.131 477.52 384.496 475.218C384.029 474.385 383.487 473.56 382.865 472.746C378.774 467.401 372.992 463.522 367.287 460.022L363.587 457.771C349.641 449.272 335.912 440.38 323.804 429.337C317.398 423.494 311.081 417.373 305.697 410.558L303.793 408.148L294.167 394.593ZM317.438 390.386C310.907 390.934 303.854 390.804 297.819 392.932C303.184 398.004 308.284 403.481 313.524 408.638C313.99 405.15 314.943 401.704 315.75 398.303" fill="black"/>
<path fill-rule="evenodd" clip-rule="evenodd" d="M434.92 131.718C439.047 129.119 456.28 113.798 448.815 111.217C441.351 108.634 399.572 47.2612 299.097 99.2121C213.924 143.253 242.644 279.075 251 291.001C259.355 302.927 265.204 348.896 356.986 312.476C448.771 276.053 442.426 280.714 442.426 280.714L434.92 131.718Z" fill="#FFBE95"/>
<path fill-rule="evenodd" clip-rule="evenodd" d="M513.237 312.145C498.403 445.97 407.525 452.639 315.539 374.558C302.449 324.179 283.809 344.798 258.828 313.447C250.466 304.754 245.989 294.183 244.42 283.944C239.298 250.477 265.268 220.491 288.493 270.682C289.976 276.842 293.616 279.839 299.999 279.346C347.295 284.666 261.765 102.105 394.259 76.3504C435.707 68.2906 481.027 93.4531 496.659 119.478C531.94 178.219 524.037 259.526 518.926 282.862" fill="#FFBE95"/>
<path fill-rule="evenodd" clip-rule="evenodd" d="M515.238 311.58C511.881 325.125 509.466 349.502 495.119 327.782C480.314 310.161 498.412 273.327 519.273 282.023C519.677 292.202 517.781 300.424 515.238 311.58Z" fill="#F69A75"/>
<path fill-rule="evenodd" clip-rule="evenodd" d="M315.539 374.559C332.989 389.151 352.176 400.835 373.04 408.952C373.848 410.582 372.922 411.409 371.595 412.048C351.794 403.887 322.155 397.832 315.539 374.559Z" fill="#5C4941"/>
<path fill-rule="evenodd" clip-rule="evenodd" d="M395.687 418.382C412.303 421.993 428.709 423.632 445.468 425.48C427.738 434.905 409.401 426.375 392.158 420.211C392.861 418.69 394.735 419.425 395.687 418.382Z" fill="#5C4941"/>
<path fill-rule="evenodd" clip-rule="evenodd" d="M395.687 418.382C394.509 418.989 393.335 419.6 392.158 420.211C385.263 417.675 377.68 416.396 371.597 412.05C372.077 411.019 372.558 409.981 373.041 408.951C380.91 411.397 388.712 413.879 395.687 418.382Z" fill="#473128"/>
<path fill-rule="evenodd" clip-rule="evenodd" d="M383.923 417.064C386.306 416.549 388.034 417.424 389.176 419.537C387.429 418.716 385.676 417.892 383.923 417.064Z" fill="#5C4941"/>
<path fill-rule="evenodd" clip-rule="evenodd" d="M332.835 312.621C333.519 269 397.211 270.324 398.643 312.691C399.015 354.759 331.728 355.573 332.835 312.621Z" fill="#F69973"/>
<path fill-rule="evenodd" clip-rule="evenodd" d="M490.532 143.203C491.146 143.668 491.763 144.135 492.377 144.597C491.763 144.135 491.146 143.668 490.532 143.203Z" fill="#E46B33"/>
<mask id="mask0" style="mask-type:alpha" maskUnits="userSpaceOnUse" x="224" y="110" width="123" height="172">
<path fill-rule="evenodd" clip-rule="evenodd" d="M224 110.107H346.103V281.705H224V110.107Z" fill="white"/>
</mask>
<g mask="url(#mask0)">
<path fill-rule="evenodd" clip-rule="evenodd" d="M319.907 271.614C321.103 285.395 305.712 280.788 296.825 281.545C283.509 282.401 287.683 263.784 279.423 256.758C267.835 238.23 252.81 253.004 242.5 265.741C234.075 218.944 206.901 151.144 239.993 110.107C274.415 121.308 313.406 129.403 346.103 144.959C326.503 183.963 319.541 228.118 319.907 271.614Z" fill="#0C0B0B"/>
</g>
<path fill-rule="evenodd" clip-rule="evenodd" d="M379.178 7.24838C389.99 0.146379 390.381 25.363 392.102 32.169C395.348 40.6424 414.732 20.4406 423.731 20.6856C452.664 11.1239 494.881 1.24414 519.687 22.4292C512.487 28.0517 502.136 26.9094 498.101 36.8433C443.169 101.449 352.523 60.5739 309.688 119.223C305.354 122.993 299.595 124.906 294.017 123.191C267.251 119.15 287.154 89.351 303.515 85.3291C339.868 73.5783 377.787 49.2177 379.178 7.24838Z" fill="#0C0B0B"/>
<path fill-rule="evenodd" clip-rule="evenodd" d="M484.131 135.016C429.434 88.6488 388.982 127.878 338.629 136.864C312.165 109.019 421.107 94.7835 440.516 101.726C475.155 104.749 510.792 96.0436 532.502 66.0541C535.222 63.9605 537.844 64.1036 540.358 66.4423C574.684 67.3046 565.734 45.83 581.245 42.0085C604.457 100.711 542.569 167.748 484.131 135.016Z" fill="#0C0B0B"/>
<path fill-rule="evenodd" clip-rule="evenodd" d="M534.308 66.1945C499.603 122.492 430.18 94.7966 377.202 106.229C359.583 107.973 309.853 133.762 351.298 138.557C349.564 140.692 347.836 142.824 346.105 144.959C310.754 133.403 274.362 124.328 239.995 110.108C249.916 97.724 275.094 125.432 277.796 104.485C298.293 65.1636 359.049 70.3532 373.386 22.5483C375.318 17.4509 377.249 12.3503 379.177 7.24976C384.886 56.5279 330.943 75.9311 294.599 92.407C277.395 103.754 278.626 123.462 302.15 122.476C305.205 123.017 306.878 121.025 308.53 118.995C320.242 91.1342 352.656 85.9764 379.397 82.5145C424.138 80.8281 464.503 63.4167 498.101 36.8414C498.231 37.9997 498.359 39.1547 498.489 40.3097C499.667 41.207 499.628 42.3461 499.142 43.5743C450.544 111.438 337.965 69.9937 315.651 124.636C319.32 128.808 327.067 128.178 330.517 123.319C390.779 60.8998 505.41 137.202 541.346 36.5328C548.496 45.0189 539.555 58.4179 534.308 66.1945Z" fill="#0C0B0B"/>
<path fill-rule="evenodd" clip-rule="evenodd" d="M373.386 22.5489C365.835 75.4034 288.617 65.8227 278.205 112.406C272.825 120.491 254.007 108.25 244.379 108.082C250.555 77.7739 273.359 57.9571 302.903 50.7691C316.964 49.4646 334.595 22.0334 336.87 48.6691C351.465 44.2399 362.879 33.2082 373.386 22.5489Z" fill="#0C0B0B"/>
<path fill-rule="evenodd" clip-rule="evenodd" d="M513.517 196.195C510.669 177.572 499.564 161.71 492.37 144.639C513.781 145.74 530.849 146.001 551.521 137.219C557.898 147.837 568.169 130.578 577.352 132.29C589.44 152.511 525.172 237.967 513.517 196.195Z" fill="#0C0B0B"/>
<path fill-rule="evenodd" clip-rule="evenodd" d="M553.393 138.201C533.137 146.171 513.702 151.44 492.367 144.638L492.393 144.733C488.966 142.178 486.882 138.267 484.129 135.016C545.811 160.7 597.889 102.493 581.247 42.0085C597.682 62.2295 587.029 94.9904 576.771 116.545C571.937 125.718 564.982 136.861 553.393 138.201Z" fill="#0C0B0B"/>
<path fill-rule="evenodd" clip-rule="evenodd" d="M534.308 66.1944C536.924 56.811 545.807 46.6448 540.545 36.8763C538.473 38.0123 537.207 34.8431 538.095 33.3158C549.199 30.9548 543.109 53.7977 539.036 59.261C536.838 62.5288 537.649 64.4666 540.357 66.4426C538.432 64.1452 536.379 64.858 534.308 66.1944Z" fill="#553122"/>
<path fill-rule="evenodd" clip-rule="evenodd" d="M561.674 133.148C564.63 130.768 567.583 128.391 570.535 126.011C570.809 128.467 571.08 130.927 571.35 133.383C566.262 140.263 557.722 143.912 549.653 143.664C550.209 141.427 551.988 139.938 553.391 138.201L553.41 138.255C554.355 137.45 555.895 137.755 556.624 136.546L556.57 136.594C558.365 135.579 560.493 135.063 561.674 133.148Z" fill="#0C0B0B"/>
<path fill-rule="evenodd" clip-rule="evenodd" d="M497.676 42.7155C497.946 41.9136 498.217 41.1118 498.49 40.31C511.791 49.3116 527.474 43.5459 538.095 33.3161C535.429 50.0243 507.237 54.0494 497.676 42.7155Z" fill="#0C0B0B"/>
<path fill-rule="evenodd" clip-rule="evenodd" d="M490.544 143.337C491.158 143.801 491.775 144.266 492.393 144.731C491.779 144.266 491.158 143.801 490.544 143.337Z" fill="#E46B33"/>
<path fill-rule="evenodd" clip-rule="evenodd" d="M497.676 42.7156C512.478 51.6917 528.814 45.1911 539.441 35.1108C539.807 35.6995 540.176 36.2881 540.549 36.8768C531.853 82.6166 482.625 99.0416 442.323 97.422C426.287 95.0992 410.014 99.5857 393.981 96.7824C392.208 82.3461 417.679 87.6758 426.353 83.3166C454.621 78.9861 477.687 62.2142 497.676 42.7156Z" fill="#0C0B0B"/>
<path fill-rule="evenodd" clip-rule="evenodd" d="M397.312 88.9991C396.199 91.5923 395.091 94.1888 393.981 96.782C370.562 101.755 345.142 106.694 329.862 127.039C327.434 130.176 325.073 130.93 321.643 129.616C295.911 125.168 330.935 102.163 340.808 96.6865C359.253 93.931 378.008 87.9236 397.312 88.9991Z" fill="#0C0B0B"/>
<path fill-rule="evenodd" clip-rule="evenodd" d="M539.441 35.1117C538.801 35.1403 538.162 35.1658 537.519 35.1912C537.691 34.6312 537.866 34.0712 538.038 33.508C538.502 34.0426 538.973 34.5771 539.441 35.1117Z" fill="#D8642E"/>
<path d="M240.117 264.316C239.494 265.959 240.322 267.796 241.965 268.419C243.608 269.041 245.445 268.214 246.068 266.571C250.334 255.31 256.265 250.378 264.215 251.073C272.074 251.759 279.314 261.95 285.301 281.777C285.809 283.46 287.585 284.412 289.267 283.904C290.949 283.396 291.901 281.62 291.393 279.938C284.619 257.504 275.932 245.708 264.768 244.733C253.689 243.766 245.343 250.522 240.117 264.316Z" fill="#33241F"/>
<path d="M262.019 263.876C255.771 263.876 252.439 270.269 251.522 282.221L251.351 284.799C254.723 289.303 256.631 288.625 257.073 282.767C257.736 273.978 259.607 269.967 262.019 269.967L262.214 269.978L262.434 270.015C264.648 270.562 267.497 276.167 270.073 286.486L270.321 287.508L269.829 287.694C265.88 289.309 263.84 293.395 263.84 299.331C263.84 307.083 267.359 311.605 273.763 311.605H275.354C275.868 307.623 275.201 305.59 273.354 305.505C270.584 305.378 269.414 303.728 269.414 299.331C269.414 294.757 270.682 293.082 273.804 293.033L277.279 292.978L276.236 288.199L275.71 285.93C272.171 271.179 267.927 263.876 262.019 263.876Z" fill="#33241F"/>
<path fill-rule="evenodd" clip-rule="evenodd" d="M449.15 332.833C447.279 331.255 446.802 329.397 449.061 328.016C451.148 326.743 453.652 326.177 455.864 325.076C460.376 322.833 464.916 320.608 469.25 318.05C471.789 316.548 472.384 314.162 470.344 311.597C470.166 311.381 470.074 311.095 469.896 310.881C461.104 300.149 457.537 287.084 453.767 274.162C452.927 271.286 453.251 268.062 453.102 264.995C452.453 251.596 454.044 238.541 458.027 225.654C464.849 203.594 486.19 188.782 509.167 190.72C511.668 190.93 514.404 190.656 515.696 193.581C517.309 197.246 519.075 201.157 517.198 204.959C516.431 206.518 513.602 207.555 511.56 207.896C503.754 209.197 495.879 210.063 488.045 211.205C484.978 211.654 481.942 212.347 478.913 213.025C471.681 214.642 467.325 219.459 465.066 226.211C455.72 254.129 457.849 280.717 474.529 305.552C475.315 306.726 476.129 307.887 476.82 309.119C479.966 314.735 479.537 318.448 474.503 322.549C468.346 327.561 461.435 331.296 453.531 332.894C452.068 333.352 450.604 333.333 449.15 332.833Z" fill="#382925"/>
<mask id="mask1" style="mask-type:alpha" maskUnits="userSpaceOnUse" x="344" y="197" width="83" height="21">
<path fill-rule="evenodd" clip-rule="evenodd" d="M344.912 197.579H426.36V217.8H344.912V197.579Z" fill="white"/>
</mask>
<g mask="url(#mask1)">
<path fill-rule="evenodd" clip-rule="evenodd" d="M378.468 199.364C380.125 198.957 381.786 198.55 383.447 198.146C391.103 197.557 398.759 197.076 406.376 198.585C408.906 198.893 411.438 199.199 413.971 199.507C416.052 199.094 417.926 200.153 419.925 200.332C423.371 201.127 426.766 202.078 426.32 206.679C425.76 212.416 421.958 216.403 416.914 216.521C414.095 216.585 411.244 216.483 408.454 216.117C389.054 213.575 369.736 212.84 350.524 217.721C348.959 218.118 346.881 216.935 345.204 216.139C344.816 215.955 344.832 214.243 345.153 213.428C345.423 212.754 346.346 212.216 347.097 211.869C355.997 207.768 364.423 202.514 374.245 200.643C375.658 200.236 376.902 199.272 378.468 199.364Z" fill="#33241F"/>
</g>
<path fill-rule="evenodd" clip-rule="evenodd" d="M431.407 370.031C421.798 369.84 413.178 366.747 405.198 361.647C403.775 360.74 402.442 359.645 401.236 358.465C399.693 356.963 397.135 355.312 399.416 352.941C401.22 351.064 403.584 351.932 405.522 353.539C416.328 362.525 428.82 363.801 442.085 361.497C446.553 360.721 450.734 359.302 454.326 356.403C455.414 355.522 456.573 354.583 457.861 354.15C458.774 353.841 460.693 354.061 460.871 354.538C461.295 355.652 461.473 357.51 460.824 358.283C455.755 364.265 449.404 368.29 441.544 369.433C438.207 369.916 434.786 369.846 431.407 370.031Z" fill="#3B2C27"/>
<path fill-rule="evenodd" clip-rule="evenodd" d="M395.844 252.935C399.805 254.316 403.97 255.305 407.645 257.233C409.679 258.299 411.047 260.832 412.364 262.926C412.714 263.48 411.985 265.032 411.346 265.774C410.99 266.184 409.644 266.143 408.995 265.812C407.028 264.81 405.297 263.273 403.267 262.468C393.05 258.436 383.008 258.147 373.424 264.412C372.724 264.87 371.983 265.354 371.19 265.551C369.682 265.93 368.123 266.111 366.586 266.375C366.933 264.281 366.561 261.453 367.786 260.259C370.105 257.997 373.182 256.279 376.237 255.07C379.342 253.838 382.798 253.495 386.101 252.76C389.362 251.974 392.611 251.901 395.844 252.935Z" fill="#3C2D28"/>
<path fill-rule="evenodd" clip-rule="evenodd" d="M501.139 247.587C504.766 248.981 508.514 250.142 511.941 251.921C512.928 252.436 512.985 254.743 513.468 256.229C511.957 256.582 510 257.725 509.004 257.161C498.908 251.456 490.139 255.08 481.385 260.429C479.212 261.759 476.498 262.201 474.029 263.048C472.928 259.357 476.463 258.38 478.156 256.592C483.142 251.342 489.429 248.373 496.697 247.635C498.173 247.275 499.653 247.256 501.139 247.587Z" fill="#3D2E2A"/>
<path fill-rule="evenodd" clip-rule="evenodd" d="M406.376 198.584C398.733 198.438 391.09 198.292 383.447 198.145C391.112 197.162 398.771 196.452 406.376 198.584Z" fill="#645855"/>
<path fill-rule="evenodd" clip-rule="evenodd" d="M395.844 252.935C392.595 252.874 389.346 252.82 386.101 252.76C389.378 251.07 392.63 250.965 395.844 252.935Z" fill="#8E8683"/>
<path fill-rule="evenodd" clip-rule="evenodd" d="M419.925 200.331C417.94 200.057 415.954 199.78 413.969 199.506C415.954 199.78 417.94 200.057 419.925 200.331Z" fill="#645855"/>
<path fill-rule="evenodd" clip-rule="evenodd" d="M378.467 199.364C377.061 199.794 375.651 200.22 374.245 200.643C375.651 200.22 377.061 199.794 378.467 199.364Z" fill="#645855"/>
<path fill-rule="evenodd" clip-rule="evenodd" d="M501.139 247.587C499.659 247.603 498.176 247.619 496.697 247.635C498.176 247.619 499.659 247.603 501.139 247.587Z" fill="#9F9896"/>
<path fill-rule="evenodd" clip-rule="evenodd" d="M449.15 332.833C450.61 332.852 452.071 332.871 453.531 332.894C452.049 334.746 450.585 334.886 449.15 332.833Z" fill="#9B9391"/>
</svg>
